/* XPM */
static char *result[] = {
/* columns rows colors chars-per-pixel */
"64 64 241 2 ",
"   c #FFE4E1",
".  c #5F3869",
"X  c #67426F",
"o  c #7F548C",
"O  c #835790",
"+  c #81759A",
"@  c #867DA7",
"#  c #E33CF3",
"$  c #AC7EDC",
"%  c #B66CE3",
"&  c #B675E8",
"*  c #AE72E0",
"=  c #D553EF",
"-  c #E54DF4",
";  c #E645F4",
":  c #E857F5",
">  c #CA61EB",
",  c #D369EE",
"<  c #C879EB",
"1  c #D573F1",
"2  c #D370F1",
"3  c #EA64F6",
"4  c #E66AF5",
"5  c #E978F6",
"6  c #5A9BBE",
"7  c #7E9DBA",
"8  c #6E8EBC",
"9  c #5095C4",
"0  c #789CCB",
"q  c #7F94D0",
"w  c #56B5CC",
"e  c #69AAC7",
"r  c #75A9CC",
"t  c #7AA8C9",
"y  c #69B2CB",
"u  c #7AB5CA",
"i  c #75A3D1",
"p  c #7BAAD5",
"a  c #78B9D4",
"s  c #64BCD6",
"d  c #59D3D8",
"f  c #50D0D5",
"g  c #65C8D3",
"h  c #7DCCD9",
"j  c #78C7D4",
"k  c #64DADB",
"l  c #6BDBDC",
"z  c #67D5D6",
"x  c #75D4D4",
"c  c #75D6D9",
"v  c #7BD6DA",
"b  c #7ADBDD",
"n  c #77D6D8",
"m  c #6DDFE0",
"M  c #7EDDE1",
"N  c #72DFE0",
"B  c #66E4E5",
"V  c #73E3E4",
"C  c #7DEAEB",
"Z  c #78E3E5",
"A  c #8B97B5",
"S  c #9598B7",
"D  c #8E8CAA",
"F  c #84A2BC",
"G  c #98A6BD",
"H  c #A7ABBE",
"J  c #879BC4",
"K  c #859BD3",
"L  c #959DD6",
"P  c #9892D0",
"I  c #A39DDB",
"U  c #84A3C5",
"Y  c #8CACC5",
"T  c #8CA4CB",
"R  c #8CABCB",
"E  c #86A7C7",
"W  c #93A2C4",
"Q  c #9DAAC4",
"!  c #92A5CB",
"~  c #92ADCD",
"^  c #9BADCC",
"/  c #97A6C2",
"(  c #89B4C9",
")  c #95B3CD",
"_  c #9DB4CC",
"`  c #9EBBCC",
"'  c #98B4C6",
"]  c #8CAAD4",
"[  c #8AA9D4",
"{  c #94ACD4",
"}  c #9AAED1",
"|  c #95A9D9",
" . c #85B1D3",
".. c #8CB4D4",
"X. c #8DBBD5",
"o. c #8BB6DA",
"O. c #83BFD1",
"+. c #94B4D4",
"@. c #9CB4D3",
"#. c #9DBBD3",
"$. c #95BBDB",
"%. c #95B8D7",
"&. c #A2ADCC",
"*. c #A7AAC6",
"=. c #B2ABC7",
"-. c #A3B4CC",
";. c #A9B9CB",
":. c #A7B6CA",
">. c #B7B5CC",
",. c #A3A8D6",
"<. c #A3B5D2",
"1. c #A2BBD3",
"2. c #ABBDD4",
"3. c #A4B3DC",
"4. c #A3BBDB",
"5. c #AABCD9",
"6. c #B5BADE",
"7. c #B985EB",
"8. c #8ABEE7",
"9. c #B9ADE9",
"0. c #A5BAE2",
"q. c #BDBAE7",
"w. c #C485E8",
"e. c #C797EF",
"r. c #D896F2",
"t. c #D888F0",
"y. c #EB87F6",
"u. c #E995F9",
"i. c #F096F8",
"p. c #F281FA",
"a. c #C6A5EC",
"s. c #C4B5ED",
"d. c #D5B4F1",
"f. c #ECA3FA",
"g. c #F5A9FB",
"h. c #EAB8F7",
"j. c #F7B4FC",
"k. c #8ACEDB",
"l. c #88C8D8",
"z. c #9DC4D5",
"x. c #93C4DB",
"c. c #9CC1DC",
"v. c #9ECADC",
"b. c #96C9D7",
"n. c #82D3D5",
"m. c #83D6DB",
"M. c #84DBDD",
"N. c #8DDBDD",
"B. c #8DD4D9",
"V. c #95D4DD",
"C. c #9ED2DD",
"Z. c #93DBDD",
"A. c #9DDCDE",
"S. c #92D3D4",
"D. c #86C5CF",
"F. c #A2C4D5",
"G. c #ACC4D5",
"H. c #A2C3DC",
"J. c #AAC2DA",
"K. c #A5C9DD",
"L. c #ADCBDC",
"P. c #A1C9D6",
"I. c #B3C8DB",
"U. c #A5D7DE",
"Y. c #B1D2DF",
"T. c #89C6E8",
"R. c #9BCEE6",
"E. c #83DDE2",
"W. c #8BDEE1",
"Q. c #8AD3E6",
"!. c #94D4E2",
"~. c #95DEE1",
"^. c #9CDDE3",
"/. c #9ED6EA",
"(. c #A4C8E6",
"). c #B5CDE9",
"_. c #AAD5E5",
"`. c #A5DCE2",
"'. c #ABDDE4",
"]. c #ABD7EB",
"[. c #BDD4E4",
"{. c #B6D9E6",
"}. c #B9CEF1",
"|. c #83E2E4",
" X c #8BE3E5",
".X c #8CECEC",
"XX c #89E8EA",
"oX c #94E2E3",
"OX c #9CE3E5",
"+X c #9DE5EA",
"@X c #93EBEC",
"#X c #9BEAEC",
"$X c #92E1EA",
"%X c #9FEFF0",
"&X c #99F0F0",
"*X c #A2E5E6",
"=X c #ABE4E6",
"-X c #A3E6EA",
";X c #ADE3E9",
":X c #A3ECED",
">X c #ACEAEB",
",X c #B5E4E6",
"<X c #B4E4E9",
"1X c #BCE4EA",
"2X c #B4EDED",
"3X c #BBEDEE",
"4X c #BBE2E6",
"5X c #AEEFF0",
"6X c #B2ECF0",
"7X c #B6F1F2",
"8X c #A9F0F0",
"9X c #C9C5D5",
"0X c #D1C9D9",
"qX c #CCD4DD",
"wX c #C7C7EC",
"eX c #C8DAE6",
"rX c #D3DCE7",
"tX c #C9C1F2",
"yX c #D9D8F2",
"uX c #FBC6FD",
"iX c #E6DAF5",
"pX c #F9D7FC",
"aX c #C4EBED",
"sX c #CBE5EC",
"dX c #D5E4EC",
"fX c #D8E6ED",
"gX c #DDECF1",
"hX c #D7E8F1",
"jX c #C3F1F1",
"kX c #CAF1F1",
"lX c #CEEBF1",
"zX c #E4ECF2",
"xX c #EBEEF5",
"cX c #E1E5F1",
"vX c #FEE8FE",
"bX c #EDF2F6",
"nX c #EAF2F5",
"mX c #F3F5F9",
"MX c #FAFBFC",
"NX c #F6F5FA",
"BX c #FFE4E1",
/* pixels */
"BXBXN.m k B BXBXBXBXBXBXBXBXBXBXBXBXBXBXBXBXBXBXBXBXBXBXBXBXBXBXBXBXBXBXBXBXBXBXBXBXBXBXBXBXBXBXBXBXBXBXBXBXBXBXBXd l k V E.BXBX",
"BX~.j k.Q.W.Z B XXBXBXBXBXBXBXBXBXBXBXBXBXBXBXBXBXBXBXBXBXBXBXBXBXBXBXBXBXBXBXBXBXBXBXBXBXBXBXBXBXBXBXBXBXBXBX XB Z |.Q.k.j ~.BX",
"BX`.a a $.n.l l OXn BXBXBXBXBXBXBXBXBXBXBXBXBXBXBXBXBXBXBXBXBXBXBXBXBXBXBXBXBXBXBXBXBXBXBXBXBXBXBXBXBXBXBXBXc +Xb l n.$.p a A.BX",
"BXBXk.9 i D.M.M.OXn x M.BXBXBXBXBXBXBXBXBXBXBXBXBXBXBXBXBXBXBXBXBXBXBXBXBXBXBXBXBXBXBXBXBXBXBXBXBXBXBXBX|.n v ^.M. XO.0 6 k.BXBX",
"BXBXZ.e 9 j aXyXyX].+X8X|.BXBXBXBXBXBXBXBXBXBXBXBXBXBXBXBXBXBXBXBXBXBXBXBXBXBXBXBXBXBXBXBXBXBXBXBXBXBX X8X-X].yXcXsXa 9 y N.BXBX",
"BXBXBXb j _.pXpXuXh.s.;X:X@XBXBXBXBXBXBXBXBXBXBXBXBXBXBXBXBXBXBXBXBXBXBXBXBXBXBXBXBXBXBXBXBXBXBXBXBX$X:X6Xd.h.uXpXpX_.j b BXBXBX",
"O BXBXm W.wXj.j.f.i.i.r.].XX XBXBXBXBXBXBXBXBXBXBXBXBXBXBXBXBXBXBXBXBXBXBXBXBXBXBXBXBXBXBXBXBXBXBX XXX(.r.y.i.i.j.g.wX XV BXBXo ",
"O BXBXBX`.s.u.y.5 5 4 : < T.#X:XBXBXBXBXBXBXBXBXBXBXBXBXBXBXBXBXBXBXBXBXBXBXBXBXBXBXBXBXBXBXBXBX:X#XT.< : 4 5 5 y.i.s.*XBXBXBXO ",
"BXBXBXBX^.9.5 3 3 : : = * K k.-XBXBXBXBXBXBXBXOX XN.BXBXBXBXBXBXBXBXBXBXBXZ.N.oXOXBXBXBXBXBXBXBX*Xk.K * = : : : : 5 9.A.BXBXBXBX",
"BXBXBXBXn o.4 - : : - & T E R k.*XBXBXBXBXBXBX*XZ.BXn.BXBXBXBXBXBXBXBXBXBXn.BXN.OXBXBXBXBXBXBX*Xl.R U ] $ - : : - 4 o.x BXBXBXBX",
"BXBXBXBXBXw & ; - : , L %.2.W 7 !.|.BXBXBXBX|.oXBXBXBXd BXBXBXBXBXBXBXBXf BXBXBX$X|.BXBXBXBXZ V.A T 2.%.L , : - ; & w BXBXBXBXBX",
"BXBXBXBXBXz T.> # ; , | 0.5.G W X.v N BXBXBX X XBXBXBXz BXBXBXBXBXBXBXBXz BXBXBXoX XBXBXBXZ v ..W G 5.(.| 2 - # % 8.z BXBXBXBXBX",
"BXBXBXBXBX.X.XT.2 4 1 | c.;.;.<.^ l.oXM.BXBXM.Z.BXBXBXBXBXBXBXBXBXBXBXBXBXBXBXBXZ.M.BXBX XoXb._ :.;.;.H.| 1 3 2 T..X.XBXBXBXBXBX",
"BXBXBXBXBX.XC C }.t.5 I  .-.=.;.&.! V.OXBXBXn.B.BXBXoXBXBXBXBXBXBXBXBXBXBXoXBXBXS.n.BXBX*Xk.T &.;.*._  .I 5 e.}.C .X.XBXBXBXBXBX",
"BXBXBXBXBXBX&XXX}.r.r.e.{ K W -.! J #.^.oXBXZ.A.BXBXBXBXBXBXBXBXBXBXBXBXBXBXBXBXA.Z.BXoX`.4.J T -.W K { e.r.r.q.XX&XBXBXBXBXBXBX",
"BXBXBXBXBXBX5X(.f.g.g.d.3.[ #.G.@.&.4.b.^.Z.M.OXBXBXBXBXBXBXBXBXBXBXBXBXBXBXBXBXoXM.Z.OXx.@.&.-.G.@.[ 3.h.j.j.f.].5XBXBXBXBXBXBX",
"BXBXBXBXBXBX-XwXj.uXuXuXwX) z.$.} ] ! ] !.#XW.OXBXBXBXBXBXBXBXBXBXBXBXBXBXBXBXBXOXW.+XV...T { ~ x.z.) wXuXuXuXj.wX-XBXBXBXBXBXBX",
"BXBXBXBXBXBXc eXpXpXvXiX5./ ( $.#.] ^ @.%.|.$XOXBXBXBXBXBXBXBXBXBXBXBXBXBXBXBX+XOX@XE.X.@.} { z.$.( / <.iXvXpXpXeXv BXBXBXBXBXBX",
"BXBXBXBXBXBXc {.vXvXNX[.+.0 r u P.J.3.} ~ x.#XOX*XBXBXBXBXBXBXBXBXBXBXBXBXBXBX*XOX#X$.~ } 3.L.S.u 0 0 +.[.MXvXNX{.b BXBXBXBXBXBX",
"BXBXBXBXBXBXBX1XmXMXMX[.[ 0 J _ ( ( 5.<.| ] !.5X+XBXBXBXBXBXBXBXBXBXBXBXBXBXBX+X>XR.] | 3.5.G F _ E K [ eXMXMXbX1XBXBXBXBXBXBXBX",
"BXBXBXBXBXBXBX-X3XMXMXY.p T -.;.` ' F / { ] ..>X8XjXBXBXBXBXBXBXBXBXBXBXBXBXjX>X:Xo.] | ' F ' z.:.-.T [ _.MXmX7X+XBXBXBXBXBXBXBX",
"BXBXBXBXBXBXBX:X:XkXnXsX+.+.-.Q ' ;.+ D @.K [ _.#X|.BXBXBXBXBXBXBXBXBXBXBXBXZ :X_.] K ^ A o ;.' Q -.+.X.rXzXkX%X:XBXBXBXBXBXBXBX",
"BXBXBXBXBXBXBX&X#X2XsXqX` R <.*.;.G.S D F 8 q $.$Xk c BXBXBXBXBXBXBXBXBXBXc k W.$.0 8 F A S G.;.^ -.! ` qXqX2X%X&XBXBXBXBXBXBXBX",
"BXBXBXBXBXBXBX@X2X4XqX9X:.E E T *.G :.^ u 9 i p T. XOXBXBXBXBXBXBXBXBXBXBXoX$XT.p 0 6 u ' =.G ^ R E E :.9XqX4X2X@XBXBXBXBXBXBXBX",
"BXBXBXBXBXBXBXXX;XrX0X>.-.) +.u F S H ' $.r i t  .+X>XBXBXBXBXBXBXBXBXBXBX>XOX .t i r %.^ H A A u %.) -.>.0XrX=X|.BXBXBXBXBXBXBX",
"BXBXBXBXBXBXBXBX^.dX0X=._ ) ~ U t S H -.%.i t p _ H.-XZ.BXBXBXBXBXBXBXBXoX=XP._ p t i %.-.*.S E U ! ) ` =.9XdXA.BXBXBXBXBXBXBXBX",
"BXBXBXBXBXBXBXBXZ.eX9XH #.%.U W &.@ D *.R i U ~ -._ !.oXBXBXBXBXBXBXBXBXW.!.@._ R T i R &.@ @ &.S E %.@.=.9XsXZ.BXBXBXBXBXBXBXBX",
"BXBXBXBXBXBXBXBXn.K.9X=.| o.7 A } S S ,.t i 4.^ _ Y.1XaX,XBXBXBXBXBXBX,XaXaX[._ @.#.i E ^ S *.^ A 7 o.^ =.9Xv.h BXBXBXBXBXBXBXBX",
"BXBXBXBXBXBXBXBXw l.C.*.*.%.U R 5.I.-._ e e 4.@.I.bXMXbXhXBXBXBXBXBXBXhXmXMXmXI._ 4.e e _ -.G.2.R E o.*.*.C.h w BXBXBXBXBXBXBXBX",
"BXBXBXBXBXBXBXBXj |.M U.-.{ #.#.1.2.R 1.-.D.K.K.dXMXNXbXbXgXBXBXBXBXgXbXbXmXMXdXK.K.X.#.1.R 2.1.#.$.{ <.U.|.|.BXBXBXBXBXBXBXBXBX",
"BXBXBXBXBXBXBXBXBXV  X;X-Xm.Q.H.F._ Y Q 1.H.L.v.gXMXbXxXzXhXBXBXBXBXdXzXzXbXMXgXv.I.H.1.Q W -.J.P.Q.m.-X>X XBXBXBXBXBXBXBXBXBXBX",
"BXBXBXBXBXBXBXBXBXBXBX:X@XC #X*X'.K.L.-._ _ 5.F.zXmXzX1X;XaXBXBXBXBXaX;X4XzXmXzXH.2._ ) #.L.U.`.:X#XC @X:XBXBXBXBXBXBXBXBXBXBXBX",
"BXBXBXBXBXBXBXBXBXBXBXBXBXBX X8X7X#X+Xn u _ #.$.hXxXhX|.M Z.+XBXBX#XZ.b |.dXbXfXc.` ` u c #X#X2X#XXXBXBXBXBXBXBXBXBXBXBXBXBXBXBX",
"BXBXBXBXBXBXBXBXBXBXBXBXBXBXBXBX>XXX.XC B  X!.x.eXzXrXM d x &XBXBX%Xx d |.eXzXeXT.!.|.B C .XXXBXBXBXBXBXBXBXBXBXBXBXBXBXBXBXBXBX",
"BXBXBXBXBXBXBXBX  BXBXBXBXBXBXBXBXBXBXXXB V @X>X;XhXrX~.d n.7X7X7X3XN.d ~.rXdX;X>X#XB V BXBXBXBXBXBXBXBXBXBXBX  BXBXBXBXBXBXBXBX",
"BXBXBXBXBXBXBXBXBXBXBXBXBXBXBXBXBXBXBXBXBXBX X*X X{.eX{.OX2XaXjX7XjX2X+X[.eX'. X+X XBXBXBXBXBXBXBXBXBXBXBXBXBXBXBXBXBXBXBXBXBXBX",
"BXBXBXBXBXBXBXBXBXBXBXBXBXBXBXBXBXBXBXBXBXBXBXBXBXn.P.Y.`.>X3X,X1X3X;X`.K.z.BXBXBXBXBXBXBXBXBXBXBXBXBXBXBXBXBXBXBXBXBXBXBXBXBXBX",
"BXBXBXBXBXBXBXBXBXBXBXBXBXBXBXBXBXBXBXBXBXBXBXBXBXBXBXx.B.oX3XlXlX3XoXm.b.D.BXBXBXBXBXBXBXBXBXBXBXBXBXBXBXBXBXBXBXBXBXBXBXBXBXBX",
"BXBXBXBXBXBXBXBXBXBXBXBXBXBXBXBXBXBXBXBXBXBXN.,X>X<X[.I.V.oXjXaXaXaXoXV.).eX<X>X,XN.BXBXBXBXBXBXBXBXBXBXBXBXBXBXBXBXBXBXBXBXBXBX",
"BXBXBXBXBXBXBXBXBXBXBXBXBXBXBXBXBXBXBXM.k c ~.'.,XhXrX{.M.N.3X3X3X2XB.M.'.rXdX4X'.~.b z M.BXBXBXBXBXBXBXBXBXBXBXBXBXBXBXBXBXBXBX",
"BXBXBXBXBXBXBXBXBXBXBXBXBXBXBXBXBX-XU.A.j j +.%.eXzXdX-XM j +X5X7XOXx M.OXdXzXeX%.+.j j V.U.=XN.BXBXBXBXBXBXBXBXBXBXBXBXBXBXBXBX",
"BXBXBXBXBXBXBXBXBXBXBXBXBXBXx A.N.V.F...r R E / dXxXcX>Xb S.<XBXBX<XS.b 2XcXxXrX/ T R t ..F.Z.N.U.x BXBXBXBXBXBXBXBXBXBXBXBXBXBX",
"BXBXBXBXBXBXBXBXBXBXBXBXBXl n._.wX4.1. . .R J ` zXmXxXlX>X4XlXBXBXlX4X2XdXxXmXzX@.J R  . .4.(.wX_.n.l BXBXBXBXBXBXBXBXBXBXBXBXBX",
"BXBXBXBXBXBXBXBXBXBXBXBXM M.~.d.h.3.#.R ~ ~ t ) cXmXbXbXzXgXBXBXBXBXgXzXbXbXMXfX) t ~ ~ E <.3.h.d.^.M.M BXBXBXBXBXBXBXBXBXBXBXBX",
"BXBXBXBXBXBXBXBXBXBXBXg y a R.u.i.,.T L @.F.` { eXmXmXbXbXgXBXBXBXBXgXbXbXMXNXeX} #.F.%.! J I u.f.R.j y g BXBXBXBXBXBXBXBXBXBXBX",
"BXBXBXBXBXBXBXBXBXBXBXj h N Q.u.5 7.L @.o.#.1.) ` dXmXmXgX*XBXBXBXBXU.hXbXmXsX#.) 1.#.o.@.L w.p.u.Q.h h j BXBXBXBXBXBXBXBXBXBXBX",
"BXBXBXBXBXBXBXBXBXBXBXBX$XXXE.e.3 4 < P ..%.1.%.~ z.Y.{.Z.BXBXBXBXBXBXZ.U.Y.F.R +.1.%...P < 4 3 e.E.XXBXBXBXBXBXBXBXBXBXBXBXBXBX",
"BXBXBXBXBXBXBXBXBXBXBXBXBXBXx R.q.a.1 % o.#.c.r X.G.4.C.W.BXBXBXBXBXBXW.C.H.J.X.r c.#.o.% 4 9.q.R.c BXBXBXBXBXBXBXBXBXBXBXBXBXBX",
"BXBXBXBXBXBXBXBXBXBXBXBXBXBXBX>XjX].2 > K $.c.a  .%.#.U.BXBXBXBXBXBXBXBX`.#.%. .a $.$.L > 2 /.jX>XBXBXBXBXBXBXBXBXBXBXBXBXBXBXBX",
"BXBXBXBXBXBXBXBXBXBXBXBXBXBXBXBX2XE.7.3 & L  .] ~ _ z.U.BXBXBXBXBXBXBXBX^.z._ '  . .L & 3 7.E.2XBXBXBXBXBXBXBXBXBXBXBXBXBXBXBXBX",
"BXBXBXBXBXBXBXBXBXBXBXX BXBXBXBXBXM.0.y.y.< | Y 1.` C.BXBXBXBXBXBXBXBXBXBXC.#.1.Y I w.y.t.0.E.BXBXBXBXBXBXBXBXBXBXBXBXBXBXBXBXBX",
"BXBXBXBXBXBXBXBXBXBXBXBXBXBXBXBXBXBX`.).).a.a.~ Y v.-XBXBXBXBXBXBXBXBXBXBX>Xb.Y ^ a.a.).).=XBXBXBXBXBXBXBXBXBXBXBXBXBXBXBXBXBXBX",
"BXBXBXBXBXBXBXBXBXBXBXBXBXBXBXBXBXBXBX8X#XtXh.6.z.U.BXBXBXBXBXBXBXBXBXBXBXBX=X#.6.j.tX#X8XBXBXBXBXBXBXBXBXBXBXBXBXBXBXBXBXBXBXBX",
"BXBXBXBXBXBXBXBXBXBXBXBXBXBXBXBXBXBXBXZ B ].pXiX'.>XBXBXBXBXBXBXBXBXBXBXBXBX>X'.iXiX'.m V BXBXBXBXBXBXBXBXBXBXBXBXBXBXBXBXBXBXBX",
"BXBXBXBXBXBXBXBXBXBXBXBXBXBXBXBXBXBXBXBXf |.<X`.x BXBXBXBXBXBXBXBXBXBXBXBXBXBXn `.-X|.f BXBXBXBXBXBXBXBXBXBXBXBXBXBXBXBXBXBXBXBX",
"BXBXBXBXBXBXBXBXBXBXBXBXBXBXBXBXBXBXBXBXBXd s n.BXBXBXBXBXBXBXBXBXBXBXBXBXBXBXBXm.s d BXBXBXBXBXBXBXBXBXBXBXBXBXBXBXBXBXBXBXBXBX",
"BXBXBXBXBXBXBXBXBXBXBXBXBXBXBXBXBXBXBXBXBXf g V.BXBXBXBXBXBXBXBXBXBXBXBXBXBXBXBXBXg f BXBXBXBXBXBXBXBXBXBXBXBXBXBXBXBXBXBXBXBXBX",
"BXBXBXBXBXBXBXBXBXBXBXBXBXBXBXBXBXBXBXBXBXBXBXBXBXBXBXBXBXBXBXBXBXBXBXBXBXBXBXBXBXBXBXBXBXBXBXBXBXBXBXBXBXBXBXBXBXBXBXBXBXBXBXBX",
"BXBXBXBXBXBXBXBXBXBXBXBXBXBXBXBXBXBXBXBXBXBXBXBXBXBXBXBXBXBXBXBXBXBXBXBXBXBXBXBXBXBXBXBXBXBXBXBXBXBXBXBXBXBXBXBXBXBXBXBXBXBXBXBX",
"BXBXBXBXBXBXBXBXBXBXBXBXBXBXBXBXBXBXBXBXBXBXBXBXBXBXBXBXBXBXBXBXBXBXBXBXBXBXBXBXBXBXBXBXBXBXBXBXBXBXBXBXBXBXBXBXBXBXBXBXBXBXBXBX",
"BXBXBXBXBXBXBXBXBXBXBXBXBXBXBXBXBXBXBXBXBXBXBXBXBXBXBXBXBXBXBXBXBXBXBXBXBXBXBXBXBXBXBXBXBXBXBXBXBXBXBXBXBXBXBXBXBXBXBXBXBXBXBXBX",
"BXBXBXBXBXBXBXBXBXBXBXBXBXBXBXBXBXBXBXBXBXBXBXBXBXBXBXBXBXBXBXBXBXBXBXBXBXBXBXBXBXBXBXBXBXBXBXBXBXBXBXBXBXBXBXBXBXBXBXBXBXBXBXBX",
"BXBXBXBXBXBXBXBXBXBXBXBXBXBXBXBXBXBXBXBXBXBX  BXBXBXBXBXBXBXBXBXBXBXBXBXBXBXBXBXBX  BXBXBXBXBXBXBXBXBXBXBXBXBXBXBXBXBXBXBXBXBXBX",
"BXBXBXBXBXBXBXBXBXBXBXBXBXBXBXBXBXBXBXBXBXBXBXBXBXBXBXBXBXBXBXBXBXBXBXBXBXBXBXBXBXBXBXBXBXBXBXBXBXBXBXBXBXBXBXBXBXBXBXBXBXBXBXBX"
};
