/* XPM */
static char *result[] = {
/* columns rows colors chars-per-pixel */
"64 64 224 2 ",
"   c #FFE4E1",
".  c #290C0F",
"X  c #2C0E11",
"o  c #2F1113",
"O  c #311116",
"+  c #351419",
"@  c #39161C",
"#  c #3B181E",
"$  c #3E1D17",
"%  c #3E1A21",
"&  c #411C1E",
"*  c #4A251B",
"=  c #5A301F",
"-  c #421D24",
";  c #4C1F29",
":  c #491E27",
">  c #472129",
",  c #4C232C",
"<  c #482224",
"1  c #54242E",
"2  c #54292A",
"3  c #482934",
"4  c #542631",
"5  c #5A2632",
"6  c #552934",
"7  c #5D2936",
"8  c #5D2D39",
"9  c #5C312F",
"0  c #663827",
"q  c #622E3B",
"w  c #612C36",
"e  c #65313E",
"r  c #6A3838",
"t  c #723B3B",
"y  c #77442A",
"u  c #7A4738",
"i  c #774A30",
"p  c #39304D",
"a  c #483349",
"s  c #6B3544",
"d  c #693643",
"f  c #723B46",
"g  c #753D53",
"h  c #56236D",
"j  c #5B2770",
"k  c #5B3D77",
"l  c #7B3C69",
"z  c #652A74",
"x  c #6B2E76",
"c  c #6F2F78",
"v  c #6F3076",
"b  c #733279",
"n  c #7B367D",
"m  c #7E387E",
"M  c #793974",
"N  c #774345",
"B  c #79514C",
"V  c #72496D",
"C  c #864B37",
"Z  c #89553A",
"A  c #975935",
"S  c #8D552E",
"D  c #A25F3C",
"F  c #A6643A",
"G  c #AA653A",
"H  c #A96638",
"J  c #B46C3B",
"K  c #B96F3C",
"L  c #BC723D",
"P  c #C3763F",
"I  c #C7783F",
"U  c #C9793F",
"Y  c #81397F",
"T  c #80377F",
"R  c #844C48",
"E  c #8C5744",
"W  c #93594B",
"Q  c #945756",
"!  c #88485A",
"~  c #A45F41",
"^  c #9A6449",
"/  c #9C6355",
"(  c #8E6342",
")  c #A66847",
"_  c #B46B43",
"`  c #BA6F42",
"'  c #AC754D",
"]  c #A8724B",
"[  c #B97549",
"{  c #A46856",
"}  c #AB7251",
"|  c #AE7951",
" . c #A6745C",
".. c #B47B54",
"X. c #B47558",
"o. c #B86D56",
"O. c #985866",
"+. c #8B437A",
"@. c #89487D",
"#. c #944E7B",
"$. c #9D5D7E",
"%. c #96567D",
"&. c #8B4E6E",
"*. c #A65B62",
"=. c #986463",
"-. c #9F6678",
";. c #927472",
":. c #A87567",
">. c #BB7D69",
",. c #A1637E",
"<. c #A7697C",
"1. c #AA6C79",
"2. c #AB7578",
"3. c #B57974",
"4. c #B57976",
"5. c #A06768",
"6. c #C47641",
"7. c #C67942",
"8. c #CA7A41",
"9. c #C87E48",
"0. c #C07E5E",
"q. c #EF9B25",
"w. c #EE9D2A",
"e. c #E4922F",
"r. c #F09A24",
"t. c #EC9E33",
"y. c #E89D3A",
"u. c #E49637",
"i. c #F0A22D",
"p. c #EEA135",
"a. c #EDA33B",
"s. c #EEA83F",
"d. c #F1A936",
"f. c #F3B239",
"g. c #EFA32E",
"h. c #BC8255",
"j. c #BB8359",
"k. c #AA816A",
"l. c #BD8267",
"z. c #BC867B",
"x. c #A08077",
"c. c #CE8148",
"v. c #D2854C",
"b. c #D5884F",
"n. c #DC9547",
"m. c #DC954B",
"M. c #DC994C",
"N. c #CB8C5D",
"B. c #C78657",
"V. c #D58B54",
"C. c #CF905F",
"Z. c #D2915C",
"A. c #DC935C",
"S. c #D89856",
"D. c #E39B42",
"F. c #E19D4B",
"G. c #E1965E",
"H. c #E2985F",
"J. c #ECA641",
"K. c #EDA945",
"L. c #ECAC4C",
"P. c #E7A346",
"I. c #F3B746",
"U. c #ECAE51",
"Y. c #E7AE52",
"T. c #EBB25A",
"R. c #F1B44A",
"E. c #CC8C64",
"W. c #C38467",
"Q. c #D28E63",
"!. c #CD9067",
"~. c #D49361",
"^. c #DA9663",
"/. c #DD9964",
"(. c #D79B69",
"). c #C38973",
"_. c #C79878",
"`. c #E39D66",
"'. c #E59F68",
"]. c #E89F67",
"[. c #D7A875",
"{. c #D5A26D",
"}. c #E6A069",
"|. c #E9A26A",
" X c #EAB663",
".X c #E4BB71",
"XX c #E6A877",
"oX c #F8C64B",
"OX c #F6C859",
"+X c #FDD552",
"@X c #F9D45C",
"#X c #FDD34E",
"$X c #F2CA65",
"%X c #F7D36A",
"&X c #F4D578",
"*X c #EDC16F",
"=X c #775D93",
"-X c #823A80",
";X c #864182",
":X c #894582",
">X c #8D4B84",
",X c #924F81",
"<X c #945382",
"1X c #9A5C85",
"2X c #915388",
"3X c #975B8B",
"4X c #9D6288",
"5X c #8F6989",
"6X c #A56C84",
"7X c #A36A8A",
"8X c #AD798A",
"9X c #B27C85",
"0X c #9B939D",
"qX c #B98584",
"wX c #B38D8E",
"eX c #9C88B3",
"rX c #BE97A4",
"tX c #BBAEB2",
"yX c #CC9D81",
"uX c #E5AD82",
"iX c #E4BC9B",
"pX c #DAC0B8",
"aX c #E5CEBB",
"sX c #FFE4E1",
/* pixels */
"sXsXsXsXsXsXsXsXsXsXsXsXsXsXsXsXsXsXsXsXsXsXsXsXsXsX8 , : : > , 6 8 e 8 6 sXsXsXsXsXsXsXsXsXsXsXsXsXsXsXsXsXsXsXsXsXsXsXsXsXsXsX",
"sXsXsXsXsXsXsXsXsXsXsXsXsXsXsXsXsXsXsXsXsXsXsXsXsX, % o X X + % % % % + + + @ - , sXsXsXsXsXsXsXsXsXsXsXsXsXsXsXsXsXsXsXsXsXsXsX",
"sXsXsXsXsXsXsXsXsXsXsXsXsXsXsXsXsXsXsXsXsXsXsX8 > @ O O @ % - - % + o X X X X X + % 6 8 sXsXsXsXsXsXsXsXsXsXsXsXsXsXsXsXsXsXsXsX",
"sXsXsXsXsXsXsXsXsXsXsXsXsXsXsXsXsXsXsXsXsXg e 4 : : , 1 5 5 4 4 , % O X     X o % - - - - sXsXsXsXsXsXsXsXsXsXsXsXsXsXsXsXsXsXsX",
"sXsXsXsXsXsXsXsXsXsXsXsXsXsXsXsXsXsXsXs s s q 5 5 7 w q q q 7 5 5 ; % o   X O @ - - + o + , sXsXsXsXsXsXsXsXsXsXsXsXsXsXsXsXsXsX",
"sXsXsXsXsXsXsXsXsXsXsXsXsXsXsXsXsXs s d q q 5 5 q q d q w 7 5 5 5 ; - X X + % - - + X X X # 3 sXsXsXsXsXsXsXsXsXsXsXsXsXsXsXsXsX",
"sXsXsXsXsXsXsXsXsXsXsXsXsXsXsXs s 5 5 7 w 7 5 w q e q w 7 5 5 5 1 ; + X + - - % + X .   X o % sXsXsXsXsXsXsXsXsXsXsXsXsXsXsXsXsX",
"sXsXsXsXsXsXsXsXsXsXsXsXsXsXs d w 5 7 s q 5 w q q q q 5 5 5 5 4 ; @ + % - % + o X . .     X % , sXsXsXsXsXsXsXsXsXsXsXsXsXsXsXsX",
"sXsXsXsXsXsXsXsXsXsXsXsXsXs s q 7 5 w q w 5 w e q w 5 5 5 5 5 ; - & ; ; # O X   . . . . X + % 4 sXsXsXsXsXsXsXsXsXsXsXsXsXsXsXsX",
"sXsXsXsXsXsXsXsXsXsXsXsXs s d q w 5 5 q w w q q w 5 5 5 5 5 1 1 0 t C r # . . . . X O + % : % > 6 sXsXsXsXsXsXsXsXsXsXsXsXsXsXsX",
"sXsXsXsXsXsXsXsXsXsXsXsXsXs d q w 5 w w q w s w 5 7 7 w r t C C D 6.J Z 2 O X O + # - < > - + + % sXsXsXsXsXsXsXsXsXsXsXsXsXsXsX",
"sXsXsXsXsXsXsXsXsXsXsXsXsXsXR f e 7 7 q q s s e f R W / ) _ ` 8.6.8.6.~ t - # % - > - % + X   X # 6 sXsXsXsXsXsXsXsXsXsXsXsXsXsX",
"sXsXsXsXsXsXsXsXsXsXsXsXsXsX/ / R s f f R Q *.o.0.Q.^.H.A.v.8.U 8.8.6.~ t ; - - - % + X X . X X # 3 sXsXsXsXsXsXsXsXsXsXsXsXsXsX",
"sXsXsXsXsXsXsXsXsXsXsXsXsXN W / / *.X.>.Q.(.'.|.].].|.|.].A.v.8.8.8.6.D w @ O O o X . X X X + + - 6 sXsXsXsXsXsXsXsXsXsXsXsXsXsX",
"sXsXsXsXsXsXsXsXsXsX6 4 7 t W  .E.^.'.|.].].|.|.|.|.|.|.].`.b.8.8.8.6.C 2 o   . X X X O @ % - @ @ - sXsXsXsXsXsXsXsXsXsXsXsXsXsX",
"sXsXsXsXsXsXsX1 , , 1 6 N / E.'.'.|.|.|.].|.|.|.|.|.|.|.].`.b.8.8.8._ C & o . O + + % - % @ O X O - 6 sXsXsXsXsXsXsXsXsXsXsXsXsX",
"sXsXsXsXsX- - : 6 e sXsXsX| /.}.}.}.`.`.}.|.|.|.|.|.|.|.|.G.v.8.8.6.) u > % % % % % @ O X X     X % 6 sXsXsXsXsXsXsXsXsXsXsXsXsX",
"sXsXsX, @ - 1 8 sXsXsXsXsXj.`.|.}./.Z.`.|.|.|.|.|.|.|.|.`.V.9.8.8.6._ C 2 @ + + o X X   X   X   O % 6 sXsXsXsXsXsXsXsXsXsXsXsXsX",
"sXsXsX- # , 8 sXsXsXsXsX| C.}.|.|.`./.}.|.|.|.|.|.|.|.}.H.c._ J K 6.6.G u # o . X .   X   X X + % , sXsXsXsXsXsXsXsXsXsXsXsXsXsX",
"sXsXsX- : 7 sXsXsXsXsXsXE ..C.`.}.|.}.}.|.|.|.|.}.}./.Z.' A i y C D J ` D 0 +       X X o + % + - 4 sXsXsXsXsXsXsXsXsXsXsXsXsXsX",
"sXsXsX, 1 8 sXsXsXsXsXi Z E ( ^ ..^.|.|.|./.E...] ^ ( W ^ ) F H H H K P ` C * X o X o + @ + + + % 6 sXsXsXsXsXsXsXsXsXsXsXsXsXsX",
"sXsXsX, 5 q sXsXsXsXsXsX' ../ E / B.|.|.|.^.' R N Z / ..B.v.7.P K K P I 6.A 0 = y 0 * O o X X + , sXsXsXsXsXsXsXsXsXsXsXsXsXsXsX",
"sXsXsX5 6 e sXsXsXsXsXsX( | h.' ..~.|.|.|./.B.} ] | h.h.' ( C 0 y S H U I J S A H S * o   . + < sXsXsXsXsXsXsXsXsXsXsXsXsXsXsXsX",
"sXsXsX6 7 q sXsXsXsXsXsXB ;.x.2. .B.'.|.|.].'.^.h.h.k.x.=XV a a e S K U U P K J L F = o X O % sXsXsXsXsXsXsXsXsXsXsXsXsXsXsXsXsX",
"sXsXsX8 7 d sXsXsXsXsXsXsX0X0X=XV / `.}.}.|.|.}.~.z.tXtXeX=Xk k Q [ U 7.U U L K J H = o O & sXsXsXsXsXsXsXsXsXsXsXsXsXsXsXsXsXsX",
"sXsXsXsX8 e sXsXsXsXsXsXsXwXwX5X;.:./.(./.}.|.}.XXiXaXaXrX8X-.5.[ 7.8.8.U 8.P P J S * O # sXsXsXsXsXsXsXsXsXsXsXsXsXsXsXsXsXsXsX",
"sXsXsXsX8 d sXsXsXsXsXsXsXj.!.W.l.!./././.}.|.|.XXuXuX[.{.`.(.A.v.8.8.8.U P U P F 0 $ + , sXsXsXsXsXsXsXsXsXsXsXsXsXsXsXsXsXsXsX",
"sXsXsXsXd s sXsXsXsXsXsX' N.}.|.}.}././.}.|.|.|.|.}.|.|.|.|.|.}.A.9.8.6.U P J A y $ + - sXsXsXsXsXsXsXsXsXsXsXsXsXsXsXsXsXsXsXsX",
"sXsXsXsXsXs sXsXsXsXsXsXsXh./.}.|.}.`.`.}.|.|.|.|.|.|.|.|.|.|.|.S.v.I P P L A 0 $ o % sXsXsXsXsXsXsXsXsXsXsXsXsXsXsXsXsXsXsXsXsX",
"sXsXsXsXsXs sXsXsXsXsXsXsXsXN./.|.}.}.}.}.}.|.}.|.|.|.|.|.|.|.|./.c.c.I I J S y * + sXsXsXsXsXsXsXsXsXsXsXsXsXsXsXsXsXsXsXsXsXsX",
"sXsXsXsXsXsXsXsXsXsXsXsXsXsX] ~.}.}./././.`.}.|.|.|.|.|.|.|.|.}./.V.c.I L H F y * > sXsXsXsXsXsXsXsXsXsXsXsXsXsXsXsXsXsXsXsXsXsX",
"sXsXsXsXsXsXsXsXsXsXsXsXsXsXsX..~.}./.~.~./.}.}.|.|.|.|.|.|.|.|./.V.c.L H H H C 3 p sXsXsXsXsXsXsXsXsXsXsXsXsXsXsXsXsXsXsXsXsXsX",
"sXsXsXsXsXsXsXsXsXsXsXsXsXsXsX^ j.`.}.}.}.}.}.}.}.}.|.}.|.|.|.}.A.v.L H H K J B p sXsXsXsXsXsXsXsXsXsXsXsXsXsXsXsXsXsXsXsXsXsXsX",
"sXsXsXsXsXsXsXsXsXsXsXsXsXsXsXsX| ~.}.}.`.}.}.}.}.}.}.}.}.|.|.`.b.[ ) [ c.I L B p sXsXsXsXsXsXsXsXsXsXsXsXsXsXsXsXsXsXsXsXsXsXsX",
"sXsXsXsXsXsXsXsXsXsXsXsXsXsXsXsX] j.`./.^.~.~.N.N.N.Z.`.}.|.}.V.[ ] h.V.v.c.L ( a sXsXsXsXsXsXsXsXsXsXsXsXsXsXsXsXsXsXsXsXsXsXsX",
"sXsXsXsXsXsXsXsXsXsXsXsXsXsXsXsXsXh.}.}.`./.^.~.Z.^.`.}.|.}.Z.[ ] B.S.A.c.c.I H u sXsXsXsXsXsXsXsXsXsXsXsXsXsXsXsXsXsXsXsXsXsXsX",
"sXsXsXsXsXsXsXsXsXsXsXsXsXsXsXsXsXh.(.}.`./.Z.Q./.}.}.|.|.Z.9.' 0.^.`.b.I ` ) Q g sXsXsXsXsXsXsXsXsXsXsXsXsXsXsXsXsXsXsXsXsXsXsX",
"sXsXsXsXsXsXsXsXsXsXsXsXsXsXsXsXsX| /.}.].`././.`.}.|.}.^.c...B.^.V.0.{ W ! Y M v sXsXsXsXsXsXsXsXsXsXsXsXsXsXsXsXsXsXsXsXsXsXsX",
"sXsXsXsXsXsXsXsXsXsXsXsXsXsXsXsXsX] Z.}.`.|.|.|.}.}.}.H.[ / / { *.O.! l l M M M b sXsXsXsXsXsXsXsXsXsXsXsXsXsXsXsXsXsXsXsXsXsXsX",
"sXsXsXsXsXsXsXsXsXsXsXsXsXsXsXsXsXsX}  .>.0.W.N.B.B.B.[ E V l M M M b n T Y Y T n sXsXsXsXsXsXsXsXsXsXsX*XT.$X*XsXsXsXsXsXsXsXsX",
"sXsXsXsXsXsXsXsXsXsXsXsXsXsXsXsXsXsXsX=.:.:.:.=.O.Q Q ! l M n n n m -X-XY Y -XY b sXsXsXsXsXsXsX XT.U.K.a.p.p.R.$XsXsXsXsXsXsXsX",
"sXsXsXsXsXsXsXsXsXsXsXsXsXsXsXsXsXsXsXl.Z.M.(._.2.#.M n n m Y -X-X-X-Xm Y Y -XT b j sXsXsX.X XT.U.L.K.J.p.w.q.g.R.$XsXsXsXsXsXsX",
"sXsXsXsXsXsXsXsXsXsXsXsXsXsXsXsXsXsX:.M.p.f.oX$X_.1X-X-XY Y Y Y -X-Xm -XY Y :X>X&.&.k.{. XU.K.J.a.a.K.L.L.K.p.w.d.R.&XsXsXsXsXsX",
"sXsXsXsXsXsXsXsXsXsXsXsXsXsXsXsXsXV 2.M.P.Y. X[.9X:X-X-XY Y Y ;X;X>X#.<X$.1.3.>.E.V.F.J.p.w.w.w.r.r.q.p.L.U.L.p.g.f.OX&XsXsXsXsX",
"sXsXsXsXsXsXsXsXsXsXsXsXh j z x c V 4.^.{.z.6X4X:X-X-X-X-X-X2X3X6X4.).E.S.F.D.p.p.w.w.q.w.q.w.q.r.r.r.q.w.s.U.U.a.d.f.$XsXsXsXsX",
"sXsXsXsXsXsXsXh j j z c b n T Y ;X-._.{.k.2Xm m -X-X-X-X-X>X7X8XyX).~.Z.V.m.n.n.n.n.n.n.n.n.u.w.q.r.w.r.r.w.a.L.L.K.d.oX%XsXsXsX",
"sXx z z x x b n T Y -X+.Y Y Y -X1XqXyXqX<X;XY Y -X-X-X-X-X-X-X>X-X>X,X<X1X1X,.,.-.4X-.$.%.$.>.V.y.w.r.r.r.r.w.p.L.L.K.f.+X%XsXsX",
"Y m m m m m m m Y 1X1.3.3.4.4X7X8XwX7X>X-Xm -X-X-X-X-X-X-X-X-X-X-X-X-X-XY -XY Y -X-Xn b v =X+.<.W.D.w.q.q.r.q.q.p.K.L.f.I.+XiXsX",
"Y Y Y -Xm -Xm -X1XW.M.y.y.D.F.F.`.~.4.<X-XY Y -X-X-X-X-X-X-X-X-X-X-X-X-X-X-X-X-X-Xm b c n -X-X:X$.>.M.t.q.q.r.r.w.p.L.L.I.oX@X&X",
"Y -Xm -X-X-X-X,X3.A.P.y.p.t.t.t.t.F.).<X-XY -X-X-X-X-X-X-X-X-X-X-X-X-X-X-X-XT -Xm b c b T -X-X-X-X,X4.Z.y.w.r.r.r.w.p.K.L.I.oX%X",
"sX-XY -X-X-X-X>X,.4.).yX_.(.A.P.F.>.$.:X-XY -XY -X-X-X-X-X-X-X-X-X-X-X-XT -X-Xm n x b m -X-X-X-X-X-X:X<.W.D.w.r.r.q.q.t.L.R.oX#X",
"sXsXT -X-X-X-X-X@.1X7X4X1X%.1X<.<.<X-X-XY -X-X-X-X-X-X-X-X-X-X-X-X-X-X-XY -X-Xm c x n m -X-X-X-X-X-X-X:X4Xl.F.w.r.q.q.w.p.L.OX+X",
"sXsXsXsXY Y -X-X>X3X2X:X-X-X-X-X;X-X-X-X-X-X-X-X-X-X-X;X-X-X-X-X-X-X-X-X-X-XY b c c m -X-X-X-X-X-X-X-X-X-X<X3.A.a.q.q.q.w.K.OX%X",
"sXsXsXsXsXY ;X>X3X2X:XY -X-X-X-X-X-X-X-X-X-X-X-X-X-X-X-X-X-X-X:X-X-X-X-X-X-Xm b x n T -X-X-X-X-X-X-X-X-X-X-X,X1.C.y.q.q.i.f.@X%X",
"sXsXsXsXsXsX>X2X2X;X-XY -X-X-X-X-X-X-X-X-X-X-X-X-X-X-X-X-X-X-X-X-X-X-X-X-Xm n c c m -X-X-X-X-X-X-X-X-X-X-X-X-X,X1.E.P.p.f.oX+X@X",
"sXsXsXsXsXsXsX:X-X-X-X-X-X-X-X-X-X-X-X-X;X-X-X-X-X-X-X-X-X-X-X-X-X-X-X-X-Xm b c b Y -X-X-X-X-X-X-X-X-X-X-X-X-X-X:X<.!.R.oX+X+X+X",
"sXsXsXsXsXsXsX-X-X-XT -X-X-X-XY -X-X-X-X-X-X-X-X-X-X-X-X-X-X-X-X-X-X-X-X-XT b c n T -X-X-X-X-X-X:X-X-X-X-X-X-X-Xm :X6X_.$X+X+X+X",
"sXsXsXsXsXsXsXsX-Xm -X-X-XY -Xm -X-X-X-X-X-X-X-X-X-X-X-X-X-X-X-X-X-X-X-X-X-Xb c m m -X-X-X-X-X-X-X-X-X-X-X-XY -XY -X>X6X[.%X+X+X",
"sXsXsXsXsXsXsXsXsX-XY -XY Y -Xm -X-X-X-X-X-X-X-X-X-X-X-X-X-X-X-X-X-X-X-XT n c b -X-X-X-X-X-X-X-X-X-X-X-X-X-X-X-X-Xm -X:X8X[.@X+X",
"sXsXsXsXsXsXsXsXsXsXY -XY Y +.#.%.<X,X,X:X;X-X-X-XY -X-X;X-X-X-X-X-X-X-Xm n b b m T -X-X-X-X-X-X-X-X-X-X-X-X-X-X-X-X-X-X@.z..X@X",
"sXsXsXsXsXsXsXsXsXsXsX-X+.&.o.V.Q.Q.!.).z.4.6X3X>X:X:X>X2X>X;X-X-X-X-X-Xm n c b T T -X-X-X-X-X-X-X-X-X-X-X-X-X-X-X-X-X-XV 3XqX*X",
"sXsXsXsXsXsXsXsXsXsXsXsX+.*.8.e.w.w.t.t.a.P./.qX7X3X3X3X2X;X-X-X-X-X-X-Xm n c b n T T -X-X-X-X-X-X-X-X-X;X-X-X-XY Y -X-X-X-X1XwX",
"sXsXsXsXsXsXsXsXsXsXsXsXsXO.*.o.8.u.w.q.q.w.D.3.3X2X>X;X-X-X-X-X-X-X-X-X-Xm n b c b b n -X-X-X-X-X-X-X-X-X-X-X-XY -X-X-X-X-X-X,X",
"sXsXsXsXsXsXsXsXsXsXsXsXsXsXY Y O.[ e.q.q.i.D.3.2X-X-X-X-X-Xm -X-X-X-Xm -Xm -Xm n b c c b -X-X-X:X-X-X-X-X-XY -XY Y -X-X-X-X-X-X"
};
