/* XPM */
static char *result[] = {
/* columns rows colors chars-per-pixel */
"64 64 249 2 ",
"   c #FFE4E1",
".  c #651C23",
"X  c #6A1E2A",
"o  c #681D25",
"O  c #761D2A",
"+  c #7D1F31",
"@  c #66212C",
"#  c #6A222D",
"$  c #6B2627",
"%  c #76292A",
"&  c #672432",
"*  c #6A2433",
"=  c #6B2638",
"-  c #6B293D",
";  c #742334",
":  c #7D2134",
">  c #722639",
",  c #7C243B",
"<  c #772C39",
"1  c #78353A",
"2  c #703230",
"3  c #523232",
"4  c #6C2C45",
"5  c #7C2A44",
"6  c #772C47",
"7  c #773648",
"8  c #6A3654",
"9  c #7B3252",
"0  c #76365A",
"q  c #6E364B",
"w  c #773A65",
"e  c #74386B",
"r  c #583056",
"t  c #325B52",
"y  c #6E4F4F",
"u  c #6C705A",
"i  c #784378",
"p  c #76426D",
"a  c #666768",
"s  c #86392D",
"d  c #822739",
"f  c #883738",
"g  c #913A3D",
"h  c #801E2E",
"j  c #894236",
"k  c #9C4F3B",
"l  c #AE613F",
"z  c #802B46",
"x  c #873649",
"c  c #833757",
"v  c #823B64",
"b  c #884B45",
"n  c #964A45",
"m  c #97574C",
"M  c #894A55",
"N  c #865657",
"B  c #935452",
"V  c #A45A47",
"C  c #A25C57",
"Z  c #916757",
"A  c #B66A49",
"S  c #A76754",
"D  c #B46D54",
"F  c #B57457",
"G  c #AC7054",
"H  c #864974",
"J  c #8E576E",
"K  c #997568",
"L  c #947978",
"P  c #90686F",
"I  c #AA776A",
"U  c #C27B54",
"Y  c #C2784F",
"T  c #CC7E65",
"R  c #208170",
"E  c #648A79",
"W  c #B88B67",
"Q  c #AF9277",
"!  c #A4A37C",
"~  c #9F9E7D",
"^  c #CA8359",
"/  c #C58864",
"(  c #C89574",
")  c #6407B4",
"_  c #6F18B7",
"`  c #7D38B6",
"'  c #764B87",
"]  c #7D4CB7",
"[  c #7465AA",
"{  c #56559B",
"}  c #7514CA",
"|  c #7D31C5",
" . c #3A65DB",
".. c #8237BC",
"X. c #885B98",
"o. c #895087",
"O. c #98718B",
"+. c #B47C95",
"@. c #AB7889",
"#. c #855BA6",
"$. c #8C58BA",
"%. c #9058BA",
"&. c #996AB8",
"*. c #9A79B7",
"=. c #916EAA",
"-. c #A67CB9",
";. c #A173AB",
":. c #863BC5",
">. c #8631D6",
",. c #8524E1",
"<. c #8B47C6",
"1. c #904BCA",
"2. c #9357C8",
"3. c #8944D6",
"4. c #9457D6",
"5. c #8B50D2",
"6. c #A35CD7",
"7. c #9A66C5",
"8. c #9979C9",
"9. c #9D65D3",
"0. c #8A78D8",
"q. c #9877D6",
"w. c #8E7FC6",
"e. c #A266D8",
"r. c #A879DA",
"t. c #AD79D3",
"y. c #9655E3",
"u. c #8A56E0",
"i. c #A45CE8",
"p. c #A65FF4",
"a. c #9C7EED",
"s. c #967BE9",
"d. c #9D7DF0",
"f. c #8D6DE9",
"g. c #A97AE8",
"h. c #B577E9",
"j. c #AD6FF0",
"k. c #C477EE",
"l. c #32988E",
"z. c #17BAAB",
"x. c #35AFA6",
"c. c #17A18B",
"v. c #6FAA8E",
"b. c #4AB8AB",
"n. c #71B7A9",
"m. c #61919A",
"M. c #1FC7B7",
"N. c #47C5B5",
"B. c #76A9D5",
"V. c #7AADE4",
"C. c #6D88D9",
"Z. c #2ACFC7",
"A. c #37E9E1",
"S. c #66E3D9",
"D. c #4EEDE5",
"F. c #74F4EF",
"G. c #63DAD7",
"H. c #92908B",
"J. c #A9918D",
"K. c #8BB096",
"L. c #A8AB94",
"P. c #9A89AA",
"I. c #9B96B1",
"U. c #B696A5",
"Y. c #A489B6",
"T. c #B8A5BA",
"R. c #B7BDB9",
"E. c #ACB0B3",
"W. c #9BA1AD",
"Q. c #C28983",
"!. c #CAB7AB",
"~. c #C69CB9",
"^. c #B1D89A",
"/. c #8DD2BA",
"(. c #BDC8B9",
"). c #BDD2B9",
"_. c #ABCEB0",
"`. c #C6C6B9",
"'. c #C6DCB1",
"]. c #8A87DB",
"[. c #9787DC",
"{. c #879BD9",
"}. c #9388CF",
"|. c #A899CB",
" X c #A889D7",
".X c #B787D5",
"XX c #A899D6",
"oX c #B89BD9",
"OX c #B08DC9",
"+X c #97BBCB",
"@X c #8AA7D9",
"#X c #95A6DB",
"$X c #9AB6D7",
"%X c #89B4D1",
"&X c #A7B5C9",
"*X c #B8B8CC",
"=X c #A5A8DB",
"-X c #BBA6D8",
";X c #B8B3D8",
":X c #ADAECF",
">X c #9D82EC",
",X c #9988E8",
"<X c #9995E5",
"1X c #918EEC",
"2X c #A284ED",
"3X c #A788E9",
"4X c #B98AE6",
"5X c #AA98E8",
"6X c #B898E9",
"7X c #A889F1",
"8X c #B998F1",
"9X c #B28FF2",
"0X c #92A9E3",
"qX c #AAA6E6",
"wX c #B9A7E5",
"eX c #B8B0E6",
"rX c #C49FD1",
"tX c #CDB4D2",
"yX c #C486ED",
"uX c #C797EB",
"iX c #C797F2",
"pX c #D09EEA",
"aX c #C6A8E6",
"sX c #D5A7EA",
"dX c #D4B5E4",
"fX c #D1A3F1",
"gX c #C5B2E7",
"hX c #97C7C9",
"jX c #9AD7C4",
"kX c #8BD7D0",
"lX c #A8CACC",
"zX c #B8C8C8",
"xX c #B7D8C6",
"cX c #A3C5D5",
"vX c #B8CAD7",
"bX c #ABD7D2",
"nX c #B6E4CF",
"mX c #9ED8E0",
"MX c #C7D7C5",
"NX c #C9C8D9",
"BX c #C9DCD6",
"VX c #D6CBD3",
"CX c #CAE3C7",
"ZX c #C3E5D9",
"AX c #D5E3DC",
"SX c #D5E4CE",
"DX c #D5CAE3",
"FX c #DFE2E4",
"GX c None",
/* pixels */
"GXGXGXGXGXGXGXGXGXGXGXGXGXGXGXGXGXGXGXGXGXGXGXGXGXGXGXGXGXGXGXGXGXGXGXGXGXGXGXGXGXGXGXGXGXGXGXGXGXGXGXGXGXGXGXGXGXGXGXGXGXGXGXGX",
"GXGXGXGXGXGXGXGXGXGXGXGXGXGXGXGXGXGXGXGXGXGXGXGXGXGXGXGXGXGXGX4 6 5 z 6 6 GXGXGXGXGXGXGXGXGXGXGXGXGXGXGX2XGXGXGXGXGXGXGXGXGXGXGX",
"GXGXGXGXGXGXGXGXGXGXGXGXGXGXGXGXGXGXGXGXGXGXGXGXGXGXGXGXGX& = 6 : : + : : : GXGXGXGXGXGXGXGXGXGX>Xf.f.0.<X<XGXGXGXGXGXGXGXGXGXGX",
"GXGXGXGXGXGXGXGXGXGXGXGXGXGXGXGXGXGXGXGXGXGXGXGXGXGXGXGXGX& = 4 : : : , , , z 9 w GXGXGXGXGXGXg.>X5X0XhXhX+XGXGXGXGXGXGXGXGXGXGX",
"GXGXGXGXGXGXGXGXGXGXGXGXGXGXGXGXGXGXGXGXGXGXGXGXGXGXGXGXGX4 r { { i 8 * q 9 : 5 9 GXGXGXGXd.g.3XqXvXxX_.L.Q D A GXGXGXGXGXGXGXGX",
"GXGXGXGXGXGXGXGXGXGXd.>Xd.d.GXGXGXGXGXGXGXGXGXGXGXGXGXGXGXGXGX .C.[ 8 * 4 9 : 5 GXGXGXGX7X9X8XsXVX!.( W F A A GXGXGXGXGXGXGXGXGX",
"GXGXGXGXGXGXqX,Xf.f.a.>Xa.d.d.2X>X7XGXGXGXGXGXGXGXGXGXGXGXGXGX{ [ ' 8 8 4 > + 6 GXGXGXr. X.XrX!.( Q.U.+.+.+.GXGXGXGXGXGXGXGXGXGX",
"GXGXGXGXGXGX#X+XkXcXvXvXeX6X8X9X8X9X9X7XGXGXGXGXGXGXGXGXGXGXw 4 5 8 0 8 * O + z c w i v H P I T Q.T.;XE.E.E.6XGXGXGXGXGXGXGXGXGX",
"GXGXGXGXGXGX#XhXjXnXnXAXAXVXVXdXsXsXuXuX8X6XGXGXGXGXGXGXGXo.c d : d z 9 = X O + : : h f k Y D D J.R.nXjX/.hX=XGXGXGXGXGXGXGXGXGX",
"GXGXGXGXGXGXGX].{.$XwXwXaXaXgXsXaXsXsXsXsXfXiX8XGXGXGXGXo.H c g g x x 6 = * = * X O s l Y A n z o.P.&X%XhXhX=XGXGXGXGXGXGXGXGXGX",
"GXGXGXGXGXGXGXGXg.3X5XwXgXgXaXwX4X4XoXaXdXdXdXfXiXGXGXGXM C F A S C m n % o @ * % s V l k s + + 0 X.0.,X>XGXGXGXGXGXGXGXGXGXGXGX",
"GXGXGXGXGXGXGXwX=XlXlXBXFXFXDXDXdXtXtXzXMX`.).zXwX8XGXGXB F ^ ^ G Z B n 1 & 6 b V A k % . . X + 9 O.&XcXcXqXd.GXGXGXGXGXGXGXGXGX",
"GXGXGXGXGXGXwXcXjX/.jXbXvXvXNXtXdXdXdXNXVXCXCXBXNXoX-.O.P P W ^ ( / F B M M G U A j % . o O + d H ;.&XjXkXkX%X<Xg.GXGXGXGXGXGXGX",
"GXGXGXGXGXGX5XhXhX+X#X].,X5X;XNX(.'.`.'.'.MXMXBXMXJ.O.H 7 b S U T F V b S U ^ V j : O O h h d z o.&.3X<X<X0X{.a.f.GXGXGXGXGXGXGX",
"GXGXGXGXGXGXGXGXGX3X<XqX:XzX_._.^.^.'.SXFXFXFXVXU.N 1 * & 2 j y L H.H.~ W U k f < + + d d z c e GXGXGXGXGXGXGXGXGXGXGXGXGXGXGXGX",
"GXGXGXGXGXGXGXGX,XqXcXjXbXvXvX;XoX|.=X:X:X*XzX(.H.1 @ > q b y E b.G.mXmXL.Z 2 # = 5 , z J L J.P. X5XGXGXGXGXGXGXGXGXGXGXGXGXGXGX",
"GXGXGXGXGXGXGX>X0XkXkX+X=X3Xh.GXGXGXGX3XXX*X`.CXR.L 1 f S F Q v.D.F.F.F.S.n.a 3 - 6 + g P R.).^.^.R.=X1X2XGXGXGXGXGXGXGXGXGXGXGX",
"GXGXGXGXGXGXg.<X@X%X@XGXGXGXGXGXGXX.P.(.`.`.L.^._.W.a K Q ( W ~ G.D.D.A.A.Z.x.a 4 , x J U.MX`.!.R.lX$XhX$XqX>XGXGXGXGXGXGXGXGXGX",
"GXGXGXGXGXGXf.d.>XGXGXGX= o .   . $ y L.I y 2 a O.O.Q Q Q W y u l.z.M.z.z.x.m.y , c ;.yXpXuXuX.X4X3X2X].{.@X<XGXGXGXGXGXGXGXGXGX",
"GXGXGXGXGXGXGXGXGXGXGX& @ . . . . $ 1 Z M < # 7 N K I S j 2 $ 3 t R c.z.z.x.a f z v X.t.pXpXuX4XyX6X6X5Xf.f.s.GXGXGXGXGXGXGXGXGX",
"GXGXGXGXGXGXGXGXGXGXq 4 * @ * > > = @ @ # 7 x Z K K b % . o X $ 2 u v.N.Z.x.y < h c o.7.uXpXfXpX4Xh.3X:X+X%X{.GXGXGXGXGXGXGXGXGX",
"GXGXGXGXGXGXGXGXGXGX- & @ o # > h : < q y L I F C < < > = * ; : 1 G ! v.b.l.8 < c e GXGXiXuXaXdXgXwX7X>X{.{.{.GXGXGXGXGXGXGXGXGX",
"GXGXGXGXGXGXGXGX8 ' i i 8 - > 7 , d m W Q J.J.J x z d d + ; % 1 j W L.n.N.b.GXGXGXGXGXGXGX4X6XwXBXvX;X9XGXGXGXGXGXGXGXGXGXGXGXGX",
"GXGXGXGXGXGX4 = 4 ' ] ' e 8 w p M L H.J.K C o.H c x x x M GXH.E E K./.S.D.GXGXGXGXGXGXGXGXGX4X6XqXlXjXqXGXGXGXGXGXGXGXGXGXGXGXGX",
"GXGXGXGXGXq = . . & 0 0 0 ' #.=.J.L.J.J H o.#.o.P @.U.~.rX*X+X%X%X@X{.V.G.D.GXGXGXGXGXGXGXGXGX5X5XqX$XqXGXGXGXGXGXGXGXGXGXGXGXGX",
"GXGXGXGXGXGX& . . . X = 6 M L I.hXmXmX$X|. X8.;.Y.-XaXrXoXwX6X3Xf.i.j.4X$XmXNXGXGXGXGXGXGXGXGXGX0X<X7XGXGXGXGXGXGXGXGXGXGXGXGXGX",
"GXGXGXGXGXGX. X X o O O < m I J.H.B.B.=X5X6XGXGXGX<X[.XXoXq.>.,.6.j.yXuXaXNXDXeXXXGXGXGXGXGXGXGXGXV.1XGXGXGXGXGXGXGXGXGXGXGXGXGX",
"GXGXGXGXGXGX. X & & o o 2 m V n x H #.XX5XGXGXGXGX}.}.8.7.>.} ,.p.iXfXyX6XwX-XoXXXXXGXGXGXGXGXGXGXGX5XGXGXGXGXGXGXGXGXGXGXGXGXGX",
"GXGXGXGXGXGX. @ 4 & GX$ s j f 7 H X.}.%XGXGXGXGXGX0.}.] _ _ } >.p.4XaX.X5X6X=X=XXXGXGXGXGXGXGXGXGXGXGXGXGXGXGXGXGXGXGXGXGXGXGXGX",
"GXGXGXGXGXGX. o . GXGXGXs % < 0 o.[ C.B.GXGXGXGXGXGXGXGXGX) _ :.t.h..XoXOXXXGX|.XXGXGXGXGXGXGXGXGXGXGXGXGXGXGXGXGXGXGXGXGXGXGXGX",
"GXGXGXGXGXGXGXGXGXGXGXGX$   o > 0 ' [ GXGXGXGXGXGXGXGXGXGX) _ ..t.rXY.T.OX}.OX|.GXGXGXGXGXGXGXGXGXGXGXGXGXGXGXGXGXGXGXGXGXGXGXGX",
"GXGXGXGXGXGXGXGXGXGXGXGX      X 6 9 9 GXGXGXGXGXGXGXbXGXGX_ _ <..Xt.t.3Xq.q.GXGXGXGXGXGXGXGXGXGXGXGXGXGXGXGXGXGXGXGXGXGXGXGXGXGX",
"GXGXGXGXGXGXGXGXGXGXGXGXGXGXGXGXX * = > GXGXGXGXGXGXGXZX;X%...1.t.g.j.9Xj.GXGXGXGXGXGXGXGXGXGXGXGXGXGXGXGXGXGXGXGXGXGXGXGXGXGXGX",
"GXGXGXGXGXGXGXGXGXGXGXGXGXGXGXGXGXGXGXGXGXGXGXGXGXGXGXZXzX*.%.1.e.j.j.k.h.GXGXGXGXGXGXGXGXGXGXGXGXGXGXGXGXGXGXGXGXGXGXGXGXGXGXGX",
"GXGXGXGXGXGXGXGXGXGXGXGXGXGXGXGXGXGXGXGXGXGXGXGXGXGXGXGX).W.*.2.i.p.p.j.GXGXGXGXGXGXGXGXGXGXGXGXGXGXGXGXGXGXGXGXGXGXGXGXGXGXGXGX",
"GXGXGXGXGXGXGXGXGXGXGXGXGXGXGXGXGXGXGXGXGXGXGXGXGXGXGXGXnXW.Y.-.e.4.u.i.GXGXGXGXGXGXGXGXGXGXGXGXGXGXGXGXGXGXGXGXGXGXGXGXGXGXGXGX",
"GXGXGXGXGXGXGXGXGXGXGXGXGXGXGXGXGXGXGXGXGXGXGXGXGXGXGXGXCX|.P.-.GX:.| <.GXGXGXGXGXGXGXGXGXGXGXGXGXGXGXGXGXGXGXGXGXGXGXGXGXGXGXGX",
"GXGXGXGXGXGXGXGXGXGXGXGXGXGXGXGXGXGXGXGXGXGXGXGXGXGXGXGXGXI.w.&.GX` ..7.GXGXGXGXGXGXGXGXGXGXGXGXGXGXGXGXGXGXGXGXGXGXGXGXGXGXGXGX",
"GXGXGXGXGXGXGXGXGXGXGXGXGXGXGXGXGXGXGXGXGXGXGXGXGXGXGXGXGX&X}.2.GX=.-.rXGXGXGXGXGXGXGXGXGXGXGXGXGXGXGXGXGXGXGXGXGXGXGXGXGXGXGXGX",
"GXGXGXGXGXGXGXGXGXGXGXGXGXGXGXGXGXGXGXGXGXGXGXGXGXGXGXGXGXGX8.8.#.&.t.k.GXGXGXGXGXGXGXGXGXGXGXGXGXGXGXGXGXGXGXGXGXGXGXGXGXGXGXGX",
"GXGXGXGXGXGXGXGXGXGXGXGXGXGXGXGXGXGXGXGXGXGXGXGXGXGXGXGXGXGX0.0.:.1.j.k.GXGXGXGXGXGXGXGXGXGXGXGXGXGXGXGXGXGXGXGXGXGXGXGXGXGXGXGX",
"GXGXGXGXGXGXGXGXGXGXGXGXGXGXGXGXGXGXGXGXGXGXGXGXGXGXGXGXGXGXu.u.>.i.k.pXtXvXnXGXGXGXGXGXGXGXGXGXGXGXGXGXGXGXGXGXGXGXGXGXGXGXGXGX",
"GXGXGXGXGXGXGXGXGXGXGXGXGXGXGXGXGXGXGXGXGXGXGXGXGXGXGXGXGX[ 1.4.6.h.pXpXNXZXGXGXGXGXGXGXGXGXGXGXGXGXGXGXGXGXGXGXGXGXGXGXGXGXGXGX",
"GXGXGXGXGXGXGXGXGXGXGXGXGXGXGXGXGXGXGXGXGXGXGXGXGXGXGXGXGXX.$.9.t.h..X|.xXGXGXGXGXGXGXGXGXGXGXGXGXGXGXGXGXGXGXGXGXGXGXGXGXGXGXGX",
"GXGXGXGXGXGXGXGXGXGXGXGXGXGXGXGXGXGXGXGXGXGXGXGXGXGXGXGXGX] =.7.9.6. X*XxXGXGXGXGXGXGXGXGXGXGXGXGXGXGXGXGXGXGXGXGXGXGXGXGXGXGXGX",
"GXGXGXGXGXGXGXGXGXGXGXGXGXGXGXGXGXGXGXGXGXGXGXGXGXGXGXGXGX| $.;.%.7. XzXCXGXGXGXGXGXGXGXGXGXGXGXGXGXGXGXGXGXGXGXGXGXGXGXGXGXGXGX",
"GXGXGXGXGXGXGXGXGXGXGXGXGXGXGXGXGXGXGXGXGXGXGXGXGXGXGXGXGX>.%.-.&.Y.:X_.GXGXGXGXGXGXGXGXGXGXGXGXGXGXGXGXGXGXGXGXGXGXGXGXGXGXGXGX",
"GXGXGXGXGXGXGXGXGXGXGXGXGXGXGXGXGXGXGXGXGXGXGXGXGXGXGXGXGX3.2.*.Y.T.`.GXGXGXGXGXGXGXGXGXGXGXGXGXGXGXGXGXGXGXGXGXGXGXGXGXGXGXGXGX",
"GXGXGXGXGXGXGXGXGXGXGXGXGXGXGXGXGXGXGXGXGXGXGXGXGXGXGXGXGXGXr. XoX;XGXGXGXGXGXGXGXGXGXGXGXGXGXGXGXGXGXGXGXGXGXGXGXGXGXGXGXGXGXGX",
"GXGXGXGXGXGXGXGXGXGXGXGXGXGXGXGXGXGXGXGXGXGXGXGXGXGXGXGXGXGXGXGXg.2XGXGXGXGXGXGXGXGXGXGXGXGXGXGXGXGXGXGXGXGXGXGXGXGXGXGXGXGXGXGX",
"GXGXGXGXGXGXGXGXGXGXGXGXGXGXGXGXGXGXGXGXGXGXGXGXGXGXGXGXGXGXGXGX1.4.GXGXGXGXGXGXGXGXGXGXGXGXGXGXGXGXGXGXGXGXGXGXGXGXGXGXGXGXGXGX",
"GXGXGXGXGXGXGXGXGXGXGXGXGXGXGXGXGXGXGXGXGXGXGXGXGXGXGXGXGXGXGXGX&.&.GXGXGXGXGXGXGXGXGXGXGXGXGXGXGXGXGXGXGXGXGXGXGXGXGXGXGXGXGXGX",
"GXGXGXGXGXGXGXGXGXGXGXGXGXGXGXGXGXGXGXGXGXGXGXGXGXGXGXGXGXGXGXGX;.GXGXGXGXGXGXGXGXGXGXGXGXGXGXGXGXGXGXGXGXGXGXGXGXGXGXGXGXGXGXGX",
"GXGXGXGXGXGXGXGXGXGXGXGXGXGXGXGXGXGXGXGXGXGXGXGXGXGXGXGXGXGXGXGX$.$.GXGXGXGXGXGXGXGXGXGXGXGXGXGXGXGXGXGXGXGXGXGXGXGXGXGXGXGXGXGX",
"GXGXGXGXGXGXGXGXGXGXGXGXGXGXGXGXGXGXGXGXGXGXGXGXGXGXGXGXGXGXGXGX1.5.GXGXGXGXGXGXGXGXGXGXGXGXGXGXGXGXGXGXGXGXGXGXGXGXGXGXGXGXGXGX",
"GXGXGXGXGXGXGXGXGXGXGXGXGXGXGXGXGXGXGXGXGXGXGXGXGXGXGXGXGXGXGXGX1.9. XGXGXGXGXGXGXGXGXGXGXGXGXGXGXGXGXGXGXGXGXGXGXGXGXGXGXGXGXGX",
"GXGXGXGXGXGXGXGXGXGXGXGXGXGXGXGXGXGXGXGXGXGXGXGXGXGXGXGXGXGXGXGX4.r.6XGXGXGXGXGXGXGXGXGXGXGXGXGXGXGXGXGXGXGXGXGXGXGXGXGXGXGXGXGX",
"GXGXGXGXGXGXGXGXGXGXGXGXGXGXGXGXGXGXGXGXGXGXGXGXGXGXGXGXGXGXGXGX8.r.g.GXGXGXGXGXGXGXGXGXGXGXGXGXGXGXGXGXGXGXGXGXGXGXGXGXGXGXGXGX",
"GXGXGXGXGXGXGXGXGXGXGXGXGXGXGXGXGXGXGXGXGXGXGXGXGXGXGXGXGXGXGXGX}.q.g.s.GXGXGXGXGXGXGXGXGXGXGXGXGXGXGXGXGXGXGXGXGXGXGXGXGXGXGXGX",
"GXGXGXGXGXGXGXGXGXGXGXGXGXGXGXGXGXGXGXGXGXGXGXGXGXGXGXGXGXGXGXGX] 5.g.g.GXGXGXGXGXGXGXGXGXGXGXGXGXGXGXGXGXGXGXGXGXGXGXGXGXGXGXGX",
"GXGXGXGXGXGXGXGXGXGXGXGXGXGXGXGXGXGXGXGXGXGXGXGXGXGXGXGXGXGXGXGXGX<.9.4XGXGXGXGXGXGXGXGXGXGXGXGXGXGXGXGXGXGXGXGXGXGXGXGXGXGXGXGX",
"GXGXGXGXGXGXGXGXGXGXGXGXGXGXGXGXGXGXGXGXGXGXGXGXGXGXGXGXGXGXGXGXGXGXr.GXGXGXGXGXGXGXGXGXGXGXGXGXGXGXGXGXGXGXGXGXGXGXGXGXGXGXGXGX",
"GXGXGXGXGXGXGXGXGXGXGXGXGXGXGXGXGXGXGXGXGXGXGXGXGXGXGXGXGXGXGXGXGXGXGXGXGXGXGXGXGXGXGXGXGXGXGXGXGXGXGXGXGXGXGXGXGXGXGXGXGXGXGXGX",
"GXGXGXGXGXGXGXGXGXGXGXGXGXGXGXGXGXGXGXGXGXGXGXGXGXGXGXGXGXGXGXGXGXGXGXGXGXGXGXGXGXGXGXGXGXGXGXGXGXGXGXGXGXGXGXGXGXGXGXGXGXGXGXGX"
};
