/* XPM */
static char *s_l5001696283182[] = {
/* columns rows colors chars-per-pixel */
"64 64 256 2 ",
"   c #153802",
".  c #0F3409",
"X  c #273812",
"o  c #1A4C05",
"O  c #0C5401",
"+  c #1C520B",
"@  c #195708",
"#  c #154D10",
"$  c #264A0A",
"%  c #225B0D",
"&  c #28560B",
"*  c #294917",
"=  c #2B5C13",
"-  c #2C5B1B",
";  c #265714",
":  c #335C1C",
">  c #365A1A",
",  c #354A15",
"<  c #1E640E",
"1  c #1A6615",
"2  c #29680C",
"3  c #2D641B",
"4  c #2B6A1B",
"5  c #286716",
"6  c #34641C",
"7  c #3A641C",
"8  c #336B1C",
"9  c #366817",
"0  c #2A741A",
"q  c #38771B",
"w  c #33640E",
"e  c #2D4823",
"r  c #3A4A29",
"t  c #2B5A25",
"y  c #3B5C23",
"u  c #385727",
"i  c #345A32",
"p  c #2C6725",
"a  c #356322",
"s  c #3B6425",
"d  c #346B23",
"f  c #3C6C23",
"g  c #3D642B",
"h  c #3B6C2B",
"j  c #34692A",
"k  c #2B7724",
"l  c #347323",
"z  c #3A7324",
"x  c #3B732B",
"c  c #397B28",
"v  c #3B6831",
"b  c #397833",
"n  c #2F6130",
"m  c #1C6C27",
"M  c #44591A",
"N  c #43691D",
"B  c #40751A",
"V  c #455A28",
"C  c #4B5C34",
"Z  c #4E5831",
"A  c #456C2B",
"S  c #466628",
"D  c #43742C",
"F  c #4B732C",
"G  c #447A2C",
"H  c #4A7B2C",
"J  c #447723",
"K  c #4A6334",
"L  c #446B33",
"P  c #496838",
"I  c #556B39",
"U  c #4B7233",
"Y  c #447B32",
"T  c #4B7C34",
"R  c #4C733C",
"E  c #4B7B3B",
"W  c #447738",
"Q  c #547435",
"!  c #527B34",
"~  c #547C3C",
"^  c #5B793C",
"/  c #58753B",
"(  c #546E2B",
")  c #63783B",
"_  c #646934",
"`  c #615434",
"'  c #3F6043",
"]  c #586A44",
"[  c #557B43",
"{  c #597745",
"}  c #4E6F48",
"|  c #676B4A",
" . c #657A48",
".. c #677755",
"X. c #797B57",
"o. c #6D6953",
"O. c #7A7A68",
"+. c #545F41",
"@. c #3A8429",
"#. c #3D8536",
"$. c #358A30",
"%. c #42832C",
"&. c #49862A",
"*. c #458434",
"=. c #4C8433",
"-. c #4C833B",
";. c #488A38",
":. c #53843B",
">. c #5B843D",
",. c #538B3B",
"<. c #588937",
"1. c #489536",
"2. c #55923B",
"3. c #599339",
"4. c #52812E",
"5. c #668B3A",
"6. c #55A23A",
"7. c #3F9149",
"8. c #4D8743",
"9. c #5B8443",
"0. c #548B42",
"q. c #5C8B43",
"w. c #5C824A",
"e. c #5C8B4B",
"r. c #548647",
"t. c #4C9548",
"y. c #5C9344",
"u. c #599748",
"i. c #5A8652",
"p. c #599453",
"a. c #628C44",
"s. c #638C4D",
"d. c #678649",
"f. c #6A934D",
"g. c #659B4C",
"h. c #659748",
"j. c #648352",
"k. c #6B8453",
"l. c #698A57",
"z. c #738354",
"x. c #748759",
"c. c #6D945B",
"v. c #689856",
"b. c #759759",
"n. c #758C4A",
"m. c #57A347",
"M. c #58A656",
"N. c #68A44C",
"B. c #69A757",
"V. c #74A25B",
"C. c #76A75A",
"Z. c #6AB558",
"A. c #77B257",
"S. c #768865",
"D. c #6B9763",
"F. c #789765",
"G. c #7B9675",
"H. c #708968",
"J. c #79A665",
"K. c #79B666",
"L. c #7AB575",
"P. c #71A86A",
"I. c #5C9F61",
"U. c #76C16C",
"Y. c #82995B",
"T. c #85A15D",
"R. c #8A8A67",
"E. c #869767",
"W. c #878C75",
"Q. c #879876",
"!. c #979976",
"~. c #968F6F",
"^. c #86A869",
"/. c #85B76A",
"(. c #8AA877",
"). c #98A878",
"_. c #89B676",
"`. c #96B67A",
"'. c #95A76B",
"]. c #A8B17C",
"[. c #A48D6E",
"{. c #88C476",
"}. c #95C67A",
"|. c #87C36A",
" X c #A6C67B",
".X c #7EA181",
"XX c #969B87",
"oX c #8B9C83",
"OX c #AC9B92",
"+X c #98AA87",
"@X c #97B785",
"#X c #92AC8E",
"$X c #A7BA89",
"%X c #A7B898",
"&X c #B7BA99",
"*X c #ABAE8D",
"=X c #B2BAA8",
"-X c #C9B492",
";X c #CBB9AF",
":X c #99C886",
">X c #94CE8B",
",X c #A3C889",
"<X c #A3D48B",
"1X c #A9C697",
"2X c #B8C699",
"3X c #B4D499",
"4X c #ADCE94",
"5X c #ACE598",
"6X c #B7C9A9",
"7X c #B9D7A7",
"8X c #BECAB2",
"9X c #B0CDAB",
"0X c #BAE5AA",
"qX c #CAD09A",
"wX c #C8CAA6",
"eX c #D7CBA8",
"rX c #C8D6A9",
"tX c #D6D6AC",
"yX c #C5C9B5",
"uX c #D9CBB5",
"iX c #C9D7B6",
"pX c #D6D8B6",
"aX c #E4D1B2",
"sX c #C5E6A9",
"dX c #C7E6B7",
"fX c #D7E7BD",
"gX c #DAF4B8",
"hX c #C6F9B2",
"jX c #E5E7BC",
"kX c #C9D6C7",
"lX c #D5DBC7",
"zX c #D5D6CA",
"xX c #E8D4C8",
"cX c #D7E7CA",
"vX c #D6F8C5",
"bX c #DAE7D5",
"nX c #DDF2D5",
"mX c #CBE9C7",
"MX c #FFE4E1",
"NX c #FFE4E1",
"BX c #FFE4E1",
"VX c #FFE4E1",
"CX c #FFE4E1",
"ZX c #FFE4E1",
"AX c #FFE4E1",
"SX c #FFE4E1",
"DX c #FFE4E1",
"FX c #FFE4E1",
"GX c #FFE4E1",
"HX c #FFE4E1",
"JX c #FFE4E1",
"KX c #FFE4E1",
"LX c #FFE4E1",
"PX c #FFE4E1",
"IX c #F3F4F3",
"UX c #FFE4E1",
/* pixels */
"PXJXPXJXPXPXPXPXPXPXPXPXPXPXPXPXPXKXPXPXKXPXKXPXPXPXJXPXPXPXPXPXPXPXPXPXPXPXLXPXPXPXPXPXPXPXPXLXPXLXPXJXPXPXPXPXPXPXPXPXLXLXLXLX",
"PXPXPXPXPXPXPXPXPXPXPXPXPXPXPXPXPXPXPXKXPXKXPXPXPXPXJXPXPXPXPXKXPXPXPXPXPXLXPXLXPXPXPXPXPXPXLXPXPXPXPXPXPXPXPXPXPXPXPXPXLXPXLXLX",
"LXPXPXPXPXPXPXPXPXPXPXPXLXPXPXPXPXPXPXPXPXPXPXPXPXLXPXPXPXLXPXPXPXPXPXPXPXPXPXPXPXPXPXPXPXPXPXPXPXPXPXPXPXPXKXPXPXPXPXPXPXPXLXLX",
"PXLXPXLXLXLXLXPXPXLXLXPXPXPXLXPXPXLXPXPXPXPXPXPXLXPXLXLXPXPXPXPXPXKXPXPXLXPXLXPXPXPXPXPXPXPXPXPXPXPXPXPXPXPXPXPXPXPXPXPXPXPXPXPX",
"LXLXJXLXJXLXPXJXJXPXJXLXLXLXLXJXJXLXJXJXPXJXLXPXLXPXJXJXJXPXPXPXPXPXPXPXPXPXPXPXPXKXPXPXPXPXPXPXPXPXPXPXPXPXPXPXPXPXPXPXPXPXPXJX",
"PXPXPXPXPXJXJXPXJXJXPXPXLXPXPXPXLXPXPXJXJXPXJXPXJXPXPXPXPXJXJXPXPXPXPXPXPXPXPXPXPXPXKXPXPXPXPXPXPXPXPXPXPXPXPXPXPXPXPXJXLXPXPXPX",
"PXPXPXPXPXPXPXPXPXPXPXPXPXPXPXPXPXPXPXPXPXPXPXPXPXKXPXPXPXPXPXPXPXPXPXPXPXPXPXPXPXKXPXPXKXPXPXLXPXPXPXPXPXPXLXJXPXPXPXPXPXPXPXPX",
"KXKXKXPXKXPXPXPXPXPXPXPXPXPXPXPXPXPXPXPXPXPXPXPXKXPXKXPXKXPXPXPXPXJXJXPXLXLXPXPXPXPXGXPXJXPXLXHXLXLXHXJXJXHXJXJXJXJXJXPXPXPXPXPX",
"KXIXPXKXGXJXSXSXJXSXSXJXlXbXPXUXJXDXHXSXHXHXJXVXKXGXKXKXPXGXCXAXSXJXAXAXHXZXZXMXzXPXVXW.MXJXlXbXHXNXNXDXNXAXCXZXnX6XZXHXLXKXLXKX",
"PXPXAXiXyXcXNXDX7XfX$XqX#X} 6X1XwX3X@X7XF.dX1X'.8X8X=X+X*X+XdX@X%X%XG.6XoX8XG.o.XXXXkXoXW...8X+X(.(.F.G.} 7X7XF.H.{ iXZXkXLXIXPX",
"CXCXNXc.d./ Y.^.N /.M H a.<.q.^.( b.H &.J N.C.T.( k. . .4XF <X3.^.@Xj.7Xe G.H.X S.] O.pXiXQ.(.j.I l.S V S U ~ L 1X(.' G.cXLXPXPX",
"DXCXNX7XQ f.N J 5.C.B B 5.& &.g.! N.3.3.2 @.&.J ( $ > ! `.=.&.=.a w.[ P * g * r S.S.z.rX3X`.P Q l.E.k.U y F : s.J.{ C .XFXUXHXLX",
"HXFXAXNX(.D.U & ! 5.9 w g.T & s.a F q.o |.B.:.V.{ G.P NX[ x 0 N.v.g.=.a J.$ t $ (.^.Y.3X`.! & 9.F.I ).{ sXJ.$ ^.d.[ K H.H..XUXUX",
"PXFXLXZXbX] ).Q '.f.( 4.H <X:.c.3Xd.~ ! g.}.9.7Xx.NX..CX@Xc.3 Z./.2 3.,.B.Y ~ a.E.`.( F 7 J 3.<. .H.dXx./ y J.f.s d.u S.+XX *XGX",
"KXPXLXPXyXo.E.].4X^., ( ).I b.7XBX].( ( S ! M $XW.W.=XXXr } 6 y.=.&.q &.,.B.G 5.>.5.S ( J B &.4.K &XE.1Xu S 9.> U c.U , BXlX8XDX",
"KXKXPXIXXXZ X `.qXn.$ b.sXS  .`.wXwXI ,XQ b.(.R.+XyXuX+.V X ; ,.q q 2 @.G gXg.N J o a.w q 9 4.& C ;XiXcXI j.x./ NX'.Z x.pXSXSXJX",
"PXKXJXDXQ.I d.a.5.h.}.<. X5.d.`.qXR._ sXx.c.4X .&XtXfX$XI L ; 3 =.g.% N.3.^.'._ F.D b.7 q.=.C.( R.eXtXtXz.F.{  ...X.&XpX!.;XJXDX",
"KXPXJXlXC ).a.5.J &.5.N.H H C.^ Q '.d.b./ >.d.V 5.'.'.n.@Xf d -.<.q.D 8.s ) eXaX1Xw.[ ~ T f q.>._ ~.R.I ..I X V | ~.uXxX~.zXJXJX",
"PXPXJX#Xb.b.> <.<.B & G w = 7 4.6 D >.! A f.>.d.M ` ( M = c %.z M E.1X3X .R.eXaX!.V 2XF...`., K M Q ( y /   ^.@Xr W.yX;X;XGXGXGX",
"PXIXJX+X^ B h.w N.C.9 /.:.H <.9 N.4 0XH :X<.J Q Y.5.( b.w t.Y :.f.E.3Xn.I I -X-X~.I x.iX{ vXfX^ U C.s.$ :X@XD.%Xr Q.8X=XVXJXKXPX",
"KXPXSX7X> &.|.h.g.! f.b.9.h.N.u.<Xc {.q.,.0.{.3X'.) M C.&.G <Xa.^ ( A & J N _ _ 7 ,.g.d._.`.b.^ S = U F 7 d.g v i . ' } kXLXPXKX",
"PXPXAXCX! 9 2 B J 7 S g = w 3.3.t.e.> ~ q.@ l y.qXV M ( $ > 4X .( '.! D @ =.M ) q u.*.3 A o n./ f.8 :.V.  ~ J.D.#Xi .X#X#XLXIXKX",
"UXPXcXhX5XA.2 3./.S vXR J.<.K.2 e.^., $Xv.} b p _.V F.{ b.x.'.aXwX2X/ h 0.J.f.! M.k ;.j e.K CXE.T u.@ x 3 e.<X* mXG.Q.oX=XPXKXKX",
"PX=Xx.}././.3.&.h.F F.s.^./.2 =.(.7Xx.F.c.t.L.t.W w.rX .D. .~.eXjX).u w.p.0. .9.#.7.b b 9.K !.].y h -.x W - i.w.0X#Xr r zXJXGXPX",
"PXIXAX(.h.3.N.w w g.* s f G N.y.sX&XE.) d.B.p.p.[ [ p.@XR { X.*XwXR.R L v ~  .N h c b t v { X &XwX2Xx.* L - (.J.{ C C r 8XAXZXFX",
"KXPXCXF.a.9 7 w _.BX$ J.b.:.g.=.a.( z.S A T #.O k v.j L.e.j.I X.I b._.W a _.qX].C.J f.c.L R j.1XtXwXtXI c.  (.(.] x.x.| cXAXFXFX",
"JXPXZX+XF.> f.! f.,X~ sXJ.B.g.:.h.6 J 7 J 9 <.3.%.;.;.4 0.B.a U U ,.,.z 5.T.qXaXn.5.>.v.6 x s.@X6X&XE.} c.} g > ..wXeXuXxXSXAXAX",
"PXLXJXNX+X!.b.d.7 9 ,.=.& C.v.D :.2.l w H <.B w G =.*.O D 0.E ; :X_.& 8 ( ].-XqX_ ) ) N h d x L Z Z l.c.h j h *  .pXtX~.| 6XSXSX",
"JXJXSXVXW.jXI ^.V.g.6.9 <.! S q.+ 5 % -.:X X5.( G q ,.f / :XJ.E s._.- p.M *X[.-X~.K x.r R [ c.u V E.fX7Xc.s P j.$X+X6X..X.H.MXFX",
"HXJXVXVXOXuX~.z.T.N.&.&.C.3.{ 0Xy x 7.b ,XgXqX) J.x v.j.E.eX!. .> [ F._.5.'.` [.] # i.j.g D.s./ S.k.b.`.; D 9.f.l.  C H.bXkXFXZX",
"SXJXJXKXxX;XzXZ F &.&.1.8 /.F.| %XH.W n z.X.X.r c..X} S.aXxXxXOXI :.K.4 k p , $ . m k I.; L.o = 8.x a :.V.D $ ; o P { G.bXJXPXPX",
"HXHXJX;XOXzXxX!.& 9 2 &.. C.vX2XpX1Xn # P I ` z.i.>Xn ..-X;XXXo.Q ,.c 1 t.b e.$ 7.7.1 b a 4X .[ a + # Y ,XE h E s F.P H.HXPXJXPX",
"LXJXDXW.O.W.!.b.! /.c _.- ^.7Xk.`.i.K.P.v.`.k.+Xe I.L D.Z %X{ g H a.H 3 5X8.F.R L.L.i i [.-XxXaXZ , ~ E , x.W p.2X$Xv G.bXGXPXLX",
"PXLXIXW.pX| I f.9.:.G _._.P b.c.g -.8.x r.@Xd.c.r.p i.c.g c.v.,.z q :.:Xv.L . (.t I.i.V o.uXxXOXE.d.a R E.!.- D.rXwXD.} O.GXLXLX",
"PXLXDXAXiXk.I A D & J D `.W c.{ : ,X:.S s ^.J.^.,Xs ^.7 F z {.7 ~ C.s.hXv u F.:X; b b b V F.G.P F.^.t ,XdX1Xi ; z.$Xv i r 8XUXFX",
"IXPXJXCX9X4X- 6 a.=.8 = {.e.9._.T C.n.gXf.e.V.x sX^ > 3.u.5 A.b.b.<Xp.W I k.z.c.I.I.b B.,X} p.v p.p ; _.s.(.b r.,X!.P u G.bXLXLX",
"PXGXZXCX.XvXb B.u.3.3.f f :.q.r.8.E V  .: + p $.> T.A =.$.$.m.3.-.i.b p ).2X..{ P.p.=.T x {.8.v.% p Y 0.+ - 8.9.y sXL e #XJXHXFX",
"GXJXJXAXmX} l 4 c &.J H 4.q = 4 x R *X_ F.8.p.vXd.].b.5 $.k D f.L j t - F.wXjXb.f c = <.= u.0.3 Y Y L.+ b p + T 3 y [ * cXLXHXLX",
"KXJXZXAXD.# >XZ.@.3.&.3.<.u.N.= vX..eXaXcX@XD.D.&XpXwX^.[ p.k.| I J._.} *XpXtXd.g.8.6 K.5 u.-.8.p.l -.x K.; + D + c.{ X l.cXLXPX",
"PXPXJXoX# 8.B.Z.1.N.9 3.3.*.,.:.V.$XeXaX!.{ ..F.tXaXyXx.t D.BX!.E.b.b.d.x.].E.S =.l 4 d 5 D d *.N.d 0.-.p #.:.D G v.* ..X kXHXGX",
"KXJXJXQ.} p.p m.%.@.&.B q 2 c 2 E R ).R.K L g K S.X.wXr G.l.lXrX`.<X:.8 j s y a *.k 1 1 & F ; ~ a @ K.d O G ! > K.D E.BX] =XPXKX",
"KXPXJX%X* n x y.O 0 q @ u.3.2.K.% e.U U U D [ - d.X C l..X1X%Xc.5 K.% B.0 P.8.v.#.$.m.;.'.].x.b.=.0.7 <X;.3 J $ D -.$X).V zXGXPX",
"PXKXJXbX..c.:.Y 2.q 2.&.|.N.C.5X0 Z.1.@.$.m.U.k d d # 8.b b i.W t.$.@.M.#.t.B.:.u.t.t.W ].eXBXE.~ /.~ T >XN.5.  G 9.3X2X6XMXPXGX",
"PXLXPXlXW.!.d.V.3.l 0 *.q z T 8 $.@.m.@.O $.m.t.0 O 0 *.t.p p t.@.< c d p.x a <.@ b % D -XaX-X_ S f o o Z.y.& >.a.V.2XjXyXDXPXKX",
"PXKXPXyX!.*X).T.a.G < @.{.@ d.:.C.G U.N.0 &.5 1.&.%.0 N.B.K.A.9 H J K.a v.U `.4X8.x @ D x.E.x.K a q.:.G % -.G a.q.:.@X!.yXJXGXKX",
"LXLXGXxX;XuXjXn./.5Xk Z.p.Y U A 6 T 4.D 3.N.&.2.N.A.|.g.%.=.%.3.V.C.>XP.S '.BX(.e.{.z 6 d.( l.W 0.,.g.-.u.*.=.D T a.I X oXJXPXKX",
"FXLXGXGXuX-XaXY.f.q.< t.@.h { ^.P ^.K V 9.G #.8 K.N.0 @.{.0 q N.5 b I.7.} F.^.a 0.t.f % z l :X-.% 9 a 3 0.u.9 @ @ /.* V ..SXPXKX",
"LXPXKXGX;X[._ V 7 @ l O x [ `.vXP J.{ ,X,Xs x 5 8 ,.%.@.Z.$.N.Z.0 1 M.>X$ b.y b.B.O x @ 5 #.@.l a J.P.v.Y Y u.$ <X[ * ' %XIXPXPX",
"KXPXPXVXcXQ.& z H q }.v.b.).2X6X>Xo 6 f.^.) S U G =.U.m.$.Z.6.@.@.1 $.u.l 4 5 y.8.@ %.q 0 6.1.&.L.7X0X3XJ.c.E r.dX{ +.e kXLXLXKX",
"KXKXPXJX7XR D =.%.y.=.>.^ E.*XfX@Xx ; Q ) ).'.d.9._.t.@.@.1.@.Z.Z.u.m.@ *.d e.P.l 5 c *.0 0 O %.h g ,Xc.v.> [ w.l.i e e FXHXPXPX",
"KXKXIXDX%Xr.V.#.o 5 9 ,XV z.wXrXF.# dXC X.lXrXpX..:Xp 8.a -.d J.{.c Y @ x E hXl.a - :.d l 4 c 8 f D h o f : = = - R * S.CXSXDXLX",
"KXPXJXSX9X} L.0X,.-.9.J.^. .!. .{ P.%Xz.R.-XtXyX] G.R c.L.v.:.q.G :.:Xv.R J.F.{ R 4X:XF.q.f.D T s.c.`.[ d.V.& & s.$   %X8XCXHXSX",
"PXSXZXSXmXG.L.l.p.[ s R K E.{ k.V.g.f.n.$ ).].'.~ T g.-.hXy.,.<.D e.~ j.F.fX{ I ..+XdXfX@X{ d._.c.j.{ :X* A :XP g : L ..+X8XSXHX",
"IXJXJXSX1XH.@Xe l.{ ^.u H.k.] ..h >Xf.S ) ( I k.F.A s.8./.D Y 9.L ] } u x.cXr #X=X+XyX6XMXI ] oXu * i 0Xu i.0X* (.oX} e Q.CXSXJX",
"JXJXDXSX6XG.bX8XZX9XAXnXCXNXbX6XoXNX8XlXJXMXVXVXJXbXCXZXmXmXcXnXnXcXDXAXMXSXbXVXVXyX8XlXVXiX8XiXO.%X9XnXmX%XZXG.mX#X%XUXbXPXPXLX",
"PXDXJXLXIXkXHXLXLXHXAXHXAXJXZXAXHXHXHXJXGXKXPXPXUXPXPXFXPXPXPXHXHXSXAXDXJXJXJXJXPXJXJXGXPXJXGXPXFXLXLXFXLXHXFXLXPXLXPXPXLXLXPXPX",
"PXPXPXPXPXPXPXPXPXPXPXPXPXPXJXJXJXJXJXJXPXJXPXPXJXPXPXPXJXJXPXJXJXHXHXLXJXPXPXPXPXPXPXPXPXPXPXPXPXPXPXPXPXPXPXPXPXPXPXPXPXPXPXPX",
"PXPXPXPXPXPXKXPXKXPXPXPXPXPXPXPXPXLXJXJXPXPXPXPXPXPXPXPXPXPXPXPXPXLXPXLXPXPXPXPXPXPXPXPXKXPXPXPXPXPXPXPXPXPXPXPXPXPXKXPXPXKXPXKX",
"PXPXPXPXPXKXKXPXPXKXPXKXPXPXPXPXLXLXLXPXLXPXPXLXPXPXPXLXPXPXLXPXPXPXLXPXPXPXPXPXPXPXPXPXPXPXPXPXPXPXPXPXPXPXPXPXPXPXPXPXPXPXPXPX",
"PXPXPXKXPXPXPXKXKXPXPXPXPXKXPXPXPXPXPXPXPXPXPXPXPXPXLXPXPXPXPXPXPXPXPXPXPXPXPXPXPXPXPXPXPXPXPXPXPXPXPXPXPXPXPXPXPXPXPXPXPXPXJXPX",
"PXKXPXPXPXPXPXPXPXPXPXPXPXPXKXPXPXKXPXPXPXKXPXKXPXKXPXKXPXKXPXPXPXPXPXPXPXPXPXPXPXPXPXPXPXPXPXPXJXJXJXPXPXPXPXPXPXPXJXPXJXJXJXJX",
"PXPXPXPXPXPXPXPXPXPXPXPXPXPXPXPXKXKXPXKXPXPXPXPXKXPXKXPXKXPXPXPXPXPXPXPXPXPXPXPXPXPXPXPXPXPXPXJXPXJXJXPXPXPXPXPXPXPXPXPXJXJXJXJX",
"PXPXPXPXJXPXPXLXPXPXPXPXPXPXPXPXPXPXPXPXPXPXPXPXPXPXPXPXPXPXPXPXPXPXPXPXPXPXPXPXPXPXPXJXPXPXPXPXPXPXPXPXPXPXPXPXPXPXPXPXPXPXPXPX",
"PXPXPXPXPXLXJXLXLXLXJXPXPXPXPXPXPXPXPXLXLXPXLXJXJXJXJXJXJXJXJXPXPXPXPXPXPXPXPXPXJXPXPXPXJXPXJXPXPXPXPXPXPXPXPXPXPXPXPXPXLXPXPXLX"
};
